<svg id="ezw2PRdLujh1" xmlns="http://www.w3.org/2000/svg" xmlns:xlink="http://www.w3.org/1999/xlink" viewBox="0 0 261 291" shape-rendering="geometricPrecision" text-rendering="geometricPrecision"><defs><polygon id="ezw2PRdLujh2" points="0,0 191.075872,0 191.075872,159.503004 0,159.503004"/></defs><g><g transform="matrix(.949376 0 0 0.949376 6.599191 7.344839)"><g transform="translate(69.6381 130.669)"><g><g mask="url(#ezw2PRdLujh9)"><path d="M181.086872,2.705804c-2.237-1.594-4.947-2.537-8.505-2.689-6.301-.269-12.612,2.698-15.547,8.445-1.686,3.3-1.777,7.463-.244,11.135c1.774,4.248,6.567,7.415,11.239,6.575c4.933-.886,7.447-6.539,6.872-11.197c4.586,4.273,2.956,14.244.262,19.221-3.739,6.907-7.941,13.405-14.322,18.172-2.314-19.432-21.975-32.843-40.973-29.466-9.285,1.65-17.268,8.03-19.689,17.356-4.501,17.342,11.997,32.412,28.492,32.421-2.162,1.469-4.63,2.899-6.896,3.522-1.897.522-3.857.964-5.826,1.314-19.009,3.378-36.211-4.423-54.801-6.566-19.422-2.239-38.987,2.536-51.308,18.519-10.205,13.236-12.784,34.126-6.272,50.8c2.37,6.066,7.034,10.795,12.082,14.744c1.246.975,2.541,1.905,3.977,2.568c2.04.943,4.293,1.316,6.525,1.577c11.311,1.32,22.769-.815,28.351-11.921c4.271-8.499,4.794-21.37-1.627-29.039-2.39-2.854-5.936-4.256-9.622-3.76-2.103.283-4.02,1.25-5.84,2.034c5.464-5.377,13.95-5.894,21.18-5.984c16.846-.21,33.114,5.224,50.111,3.768c11.141-.953,22.782-4.349,31.412-11.94c4.598-4.045,7.506-9.432,10.092-14.891c2.701-5.703,5.772-11.331,8.101-17.177.114-.287.213-.574.32-.861l2.129-.882c9.197-3.808,16.905-11.179,22.328-19.409c7.463-11.327,11.363-26.448,4.203-38.885-1.827-3.173-3.725-5.738-6.204-7.504m-41.142,49.492c.004.084.007.168.009054.252.019946.798-11.021054-3.057-11.963054-3.64-2.961-1.832-6.312-5.759-3.845-9.344c1.787-2.597,5.344-2.464,7.709-.793c4.61,3.256,7.806,7.721,8.09,13.525" fill="#020302"/><mask id="ezw2PRdLujh9" mask-type="luminance"><use width="191.075867" height="159.503006" xlink:href="#ezw2PRdLujh2" fill="#fff" fill-rule="evenodd"/></mask></g></g><g transform="translate(1.98394 1.43829)"><path d="M137.840132,52.740412c.052,2.358-.325,4.693-1.197,6.813-11.579.09-20.726-4.782-23.673-11.231-3.011-6.579.96-12.376,7.492-13.516-6.132,8.333,6.577,18.804,17.378,17.934" fill="#4a8980"/><path d="M131.191032,98.967812c-7.817,3.638-16.753,5.54-24.645,6.692-8.016,1.17-16.431.318-24.334-.97-8.198-1.336-16.223-2.303-24.506-1.594-5.201.445-10.477,1.081-15.262,3.164-4.787,2.083-9.085,5.825-10.696,10.79c1.269-3.911,6.812-7.039,10.431-8.152c4.478-1.376,9.743-1.752,14.408-1.809c11.487-.142,22.789,2.234,34.129,3.715c9.38,1.225,19.68.457,28.86-2.232c9.792-2.869,19.288-8.597,23.892-18.045l.023-.096c-3.401,3.598-7.653,6.374-12.3,8.537" fill="#007c75"/><path d="M125.008832,95.699312c-6.221,1.919-12.74,2.888-19.038,2.943-7.452.065-15.004-1.641-22.386-2.711-18.488-2.68-41.367-4.9-55.066,10.682-5.382,6.122-9.315,13.744-10.085,21.937-.815,8.679,2.049,20.431,10.071,25.238c3.559,2.132,8.122,2.224,12.006.766c11.831-4.442,15.37-19.761,11.846-30.93-1.167-3.698-3.469-7.474-7.208-8.5-1.172-.321-2.413-.345-3.618-.183-3.414.457-6.551,2.414-8.683,5.119-2.133,2.706-3.292,6.112-3.533,9.548-.189,2.693.263,5.625,2.15,7.555c1.891,1.935,5.097,2.424,7.479,1.14c2.383-1.284,3.737-4.231,3.161-6.875-.164-.753-.481-1.494-1.035-2.031-1.159-1.123-3.152-1.038-4.453-.082-1.301.955-1.974,2.58-2.144,4.185-.989-3.163-.304-6.799,1.768-9.386c1.206-1.505,3.128-2.712,4.995-2.224c1.987.52,3.04,2.684,3.529,4.679c1.025,4.182.826,8.411-1.142,12.267-.85,1.666-1.98,3.23-3.505,4.314s-3.483,1.645-5.308,1.235c-1.51-.34-2.815-1.302-3.88-2.426-3.459-3.651-4.653-9.015-4.188-14.023.525-5.659,2.647-12.839,6.738-16.951c3.922-3.941,9.342-6.242,14.596-7.796c16.447-4.865,34.106,1.464,50.777,1.843c6.259.142,12.539-.725,18.555-2.441c5.409-1.543,11.297-3.117,16.267-5.792c5.338-2.874,11.125-7.361,12.898-13.442-5.932,5.767-13.498,9.854-21.564,12.342" fill="#4a8980"/><path d="M132.993132,24.253512c-22.892-6.182-39.051,10.44-31.76,28.771c4.139,10.412,16.789,17.474,28.486,16.078.779-.616,1.819-1.634,2.809-2.764-6.798-.157-17.665-3.515-23.822-11.265c4.652,4.461,12.162,9.68,24.613,10.323c1.217-1.495,2.224-3.033,2.389-3.964-13.143-.781-22.038-5.881-24.996-12.337-4.021-8.805,6.182-20.484,18.272-14.95c7.988,3.665,14.246,14.16,9.505,26.997-1.441,3.896-4.448,7.073-7.704,9.55-2.973,2.263-6.866,4.967-10.473,5.96-9.488,2.61-19.637,3.082-29.349,1.577-10.626-1.647-20.796-5.531-31.517-6.672-20.221-2.151-37.539,1.455-50.038,17.668-10.182,13.208-11.967,33.608-5.997,48.892c2.174,5.566,5.828,10.712,10.962,13.77-7.365-9.041-8.129-20.934-6.176-31.998c1.597-9.05,5.437-17.915,11.6-24.802c6.211-6.941,14.332-11.608,23.462-13.444c10.346-2.08,21.037-.809,31.337.909c21.493,3.586,47.977,8.139,64.732-9.865c3.879-4.167,6.82-9.336,7.723-15.005c1.308-8.21-1.341-19.559-11.543-26.012c10.733,4.91,14.542,16.687,12.989,26.57-.769,4.892-3.004,9.456-6.043,13.335-6.033,7.702-15.928,13.767-25.638,15.217-12.118,1.811-24.45.29-36.31-1.917-21.127-3.932-43.428-4.719-59.355,12.214-11.599,12.33-16.125,35.405-8.094,50.519c1.631,3.069,4.094,5.825,7.316,7.127c2.246.907,4.714,1.061,7.133,1.193-8.981-5.833-11.75-16.8-10.98-26.961.674-8.89,5.001-16.797,10.803-23.393c8.054-9.156,19.968-12.56,31.794-13.022c9.452-.369,18.862.909,28.197,2.225c21.226,2.993,46.691,2.036,61.248-16.398c2.465-3.122,4.463-6.603,5.938-10.298c7.804-19.573-2.589-38.72-21.513-43.828m-123.54,78.259c2.437-15.284,19.733-27.69,35.766-26.986-12.285,1.057-30.009,10.14-35.766,26.986" fill="#7cbbb1"/><path d="M178.022932,2.811912c7.619,5.26,11.77,20.83,5.656,35.312-5.236,12.401-14.196,22.388-25.652,27.131.374-1.737.635-3.484.757-5.216c6.348-3.839,14.103-11.707,18.226-20.183-2.495,3.993-8.633,13.197-18.146,18.893.068-1.752.006-3.492-.193-5.206c7.887-5.686,11.545-11.194,16.233-19.853c3.533-6.537,3.893-19.827-2.535-24.321-5.007-3.516-9.894.18-10.531,2.643-.322,1.242.668,1.791,1.272.771c1.557-2.639,5.191-2.517,7.381.528c1.969,2.72-.835,11.837-8.781,9.297-4.788-1.522-7.783-9.075-4.913-14.693c4.33-8.453,13.967-10.104,21.226-5.103" fill="#7cbbb1"/></g></g><g id="ezw2PRdLujh17"><path d="M240.476026,113.370334c.475,13.677-3.531,25.89-7.147,38.089-3.439,11.602-10.039,21.842-16.919,31.63-8.057,11.465-19.215,20.501-30.526,28.648-17.349,12.501-44.925,19.498-66.346,18.091-16.515-1.086-32.704-3.753-48.027-10.064-22.124-9.112-40.552-23.018-53.275-43.441-19.487-31.283-24.251-76.581-9.929-110.881c10.738-25.716,29.686-43.946,55.686-54.218c10.384-4.102,20.931-7.93,32.174-9.221c12.792-1.466,24.97-2.991,38.144-1.174c13.622,1.878,27.123,5.216,39.501,11.279c9.365,4.588,17.705,10.946,26.11,17.131c10.832,7.972,17.992,19.126,25.883,29.506c12.053,15.853,14.008,35.511,14.671,54.625" fill="#231f20"/><path d="M232.659626,104.920134c2.799,22.365-2.307,42.591-12.556,62.066-2.762,5.216-2.762,5.216-8.549,2.403-2.686-1.313-5.408-2.59-8.093-3.941-2.383-1.201-2.95-2.776-1.551-5.328c2.912-5.216,5.257-10.733,7.149-16.436c2.912-8.856,4.16-17.863,5.105-27.131c1.589-15.085-1.701-29.119-7.262-42.704-3.064-7.392-7.148-14.372-12.633-20.751-12.178-14.183-27.27-23.415-44.895-28.97-9.266-2.888-18.684-5.703-28.404-6.829-2.498-.3-5.031-.45-7.565-.45-2.232,0-4.463.15-6.695.525-3.934.601-7.791,3.302-10.704-.6-3.594-4.803-1.551-10.019,4.199-10.583c13.048-1.275,26.135-2.476,39.185.189c4.047.825,7.828,2.476,11.686,3.752c13.54,4.429,26.854,9.719,38.239,18.463c16.037,12.383,29.842,26.379,36.461,46.343c3.253,9.907,5.56,19.626,6.883,29.982" fill="#263c46"/><path d="M205.049726,79.741634c3.706,10.806,5.673,21.914,5.561,32.909-.19,13.546-3.48,26.942-10.554,39.439-.794,1.425-1.588,2.889-2.572,4.166-2.987,3.827-8.246,3.602-11.12-.489-1.322-1.876-.302-3.565.606-5.328c3.442-6.792,5.371-14.11,7.601-21.389c3.33-11.108,3.443-22.329,2.8-33.661-.075-1.313-.756-2.588-1.096-3.902-4.124-17.412-13.844-31.446-28.028-41.953-11.914-8.818-25.227-14.86-40.658-15.573-7.944-.375-15.772.226-23.678.226-4.35,0-6.127-1.876-5.976-5.78.075-1.838.833-3.489,2.61-3.714c41.567-5.291,90.207,13.358,104.504,55.049" fill="#324c59"/><path d="M206.524326,176.105634c4.841,3.227,5.144,4.728,1.21,9.08-8.813,9.757-17.738,19.401-29.992,25.255-4.917,2.364-6.544,2.101-8.927-2.964-5.976-12.834-11.801-25.705-17.625-38.614-2.459-5.403-4.728-10.919-6.998-16.436-.718-1.65-2.345-3.49-.378-5.215c2.043-1.726,3.366-4.467,6.507-4.691c1.702.037,3.062.788,4.576,1.501c9.719,4.578,18.419,10.845,27.534,16.398c8.169,4.991,16.151,10.319,24.093,15.686" fill="#949492"/><path d="M190.033626,86.233634c6.998,18.574,3.178,42.027-6.467,58.839-.946,1.651-2.156,3.153-3.29,4.691-.568.75-1.4.938-2.157.6-.944-.45-.794-1.502-.529-2.176c1.512-3.791,3.291-7.506,4.652-11.333c4.199-11.896,6.24-23.791,4.046-36.663-1.209-7.054-3.062-13.583-5.332-20.262-2.647-7.881-7.564-13.923-13.843-18.876-12.596-9.869-26.968-15.235-43.118-15.235-6.392-.3-12.557,1.088-18.609,2.663-2.42.602-3.668.152-4.235-2.288-.304-1.314-.983-2.552-1.288-3.865-.34-1.463.153-2.739,1.778-3.189c2.611-.676,5.183-1.614,8.019-1.689c9.38-.225,18.722.075,27.876,1.989c26.476,5.59,43.23,22.253,52.497,46.794" fill="#263c46"/><path d="M183.187426,107.547834c.228,9.193-1.209,18.424-4.273,26.642-1.437,3.827-3.102,7.618-5.9,10.695-1.324,1.464-2.685,2.476-4.955,1.238-2.573-1.387-2.951-3.64-1.893-5.516c2.8-4.803,4.351-9.982,5.259-15.347c2.95-17.224,1.512-33.773-9.645-48.108-4.35-5.591-9.909-9.944-17.058-12.346-9.115-3.076-18.156-5.966-27.913-6.004-3.026,0-5.938.188-8.888,1.277-2.346.899-4.313-.264-5.031-2.853-.719-2.627.227-4.203,3.253-5.216c1.285-.451,2.571-1.163,3.896-1.275c18.798-1.464,36.537,1.426,52.649,11.895c6.241,4.053,10.704,9.419,13.805,15.874c4.199,8.705,6.43,18.873,6.694,29.044" fill="#324c59"/><path d="M160.078526,81.580234c6.052,9.381,10.099,19.288,9.153,31.221.794,8.405-1.854,16.66-5.559,24.653-1.855,4.017-2.687,4.241-6.165,2.853-4.464-1.802-4.578-2.178-3.33-6.455c1.136-3.903,2.498-7.73,3.707-11.595c2.534-8.33.908-16.248-1.324-24.054-4.121-14.41-18.116-24.541-33.284-24.541-4.615,0-9.342-.976-13.881,1.013-1.474.638-2.609.225-3.176-1.425-.341-1.052-.758-2.065-1.135-3.078-.946-2.44-.416-3.903,2.344-4.953c4.313-1.614,8.7-1.801,13.049-1.389c10.893,1.089,21.711,2.477,31.053,9.081c3.443,2.439,6.279,5.141,8.548,8.669" fill="#263c46"/><path d="M165.033126,213.067134c.908,1.99-.038,2.927-1.665,3.941-1.512.9-3.024,1.051-4.689,1.351-7.224,1.352-14.411,2.889-21.635,4.314-5.749,1.126-11.535.301-17.323.527-38.882,1.575-79.541-21.39-99.965-53.887-5.901-9.418-9.191-19.889-11.044-30.545-3.933-22.815-3.404-45.368,5.484-67.396c3.48-8.668,7.186-16.998,12.066-24.953c2.231-3.565,5.219-6.304,8.132-9.193c1.814-1.765,3.555-1.803,5.522.488c4.085,4.653,4.424,5.327.567,9.493-7.073,7.617-10.59,16.999-14.032,26.492-5.485,15.048-7.338,30.659-6.317,46.531c1.286,20.789,7.565,40.114,19.932,57.001c20.5,27.919,49.359,36.663,82.567,39.326c11.877.938,22.543-3.602,33.36-7.467c1.021-.375,2.005-.864,2.988-1.389c2.686-1.389,4.123-.112,5.031,2.29.378,1.012.604,2.101,1.021,3.076" fill="#263c46"/><path d="M158.944226,197.870334c1.097,2.889.226,5.141-2.836,6.604-10.818,5.028-22.089,8.068-34.458,7.243-16.793,1.163-32.3-4.878-46.711-12.459-14.523-7.656-27.535-17.937-36.349-32.422-20.611-33.848-18.267-77.076.456-111.186.265-.45.567-.939.832-1.388c5.711-9.607,8.435-9.719,15.128-1.051c1.779,2.326,1.892,4.428.493,6.754-1.93,3.264-4.199,6.379-5.94,9.756-16.564,32.609-13.199,79.516,14.109,105.521c6.998,6.68,16.604,13.885,25.719,17.524c9.986,3.978,20.349,6.455,30.976,7.356c10.176.825,20.199-1.389,30.07-3.716.795-.187,1.513-.712,2.308-.9c2.572-.526,5.031-.713,6.203,2.364" fill="#324c59"/><path d="M109.509226,80.679434c23.752-7.317,45.729,10.957,44.668,35.199-.718,16.023-15.431,33.885-33.814,33.546-17.133-.338-36.384-16.248-34.077-34.786-.492-8.142,2.004-15.685,6.619-22.814c3.971-6.23,10.25-9.194,16.604-11.145m24.396,34.335c.378-7.73-5.825-14.972-12.898-15.122-8.055-.151-12.594,6.754-13.086,13.96-.493,7.391,3.253,15.047,11.915,15.497c6.731.375,13.728-6.755,14.069-14.335" fill="#efa741"/><path d="M152.134726,180.796834c3.594,6.754,2.648,9.23-4.916,10.994-21.219,5.028-42.173,3.002-61.462-6.455-24.244-11.858-39.978-36.436-42.361-62.553-.644-7.242-.265-14.635,1.209-21.914c2.309-11.07,6.203-23.642,11.688-33.624.643-1.201,1.476-2.325,2.382-3.302c2.497-2.702,4.011-2.665,6.96-.037.605.525,1.173,1.164,1.778,1.726c2.194,2.064,2.119,3.902.113,6.304-6.883,8.369-11.459,18.05-13.2,28.631-4.085,24.956,1.248,47.094,21.029,64.469c5.977,5.253,11.839,10.733,19.592,13.321c10.099,3.302,20.01,6.529,31.243,4.316c6.732-1.351,13.427-2.178,19.668-5.216c2.685-1.276,4.803-.226,5.861,2.626.114.225.266.45.416.714" fill="#263c46"/><path d="M145.290426,165.035334c1.058,1.726,1.209,3.828-.417,5.216-1.664,1.426-3.63,2.589-5.635,3.339-24.775,9.457-50.72.977-66.605-18.124-10.592-12.721-14.223-27.206-14.638-43.003-.492-13.021,3.706-24.654,10.553-35.461c2.836-4.429,3.971-4.466,7.526-1.164c4.349,3.978,4.235,4.203,1.247,9.456-10.363,18.425-11.195,37.263-1.398,56.063c4.765,9.119,12.179,16.022,21.445,20.751c7.375,3.791,15.28,5.667,23.488,6.755c4.841.638,9.229-1.013,13.767-1.914c2.384-.45,4.615-1.651,6.922-2.439c1.323-.451,2.875-.826,3.745.525" fill="#324c59"/><path d="M139.616626,153.140334c1.096,1.802,1.74,3.452,0,5.141-3.177,3.04-7.451,3.19-11.385,4.015-2.648.526-5.485.075-8.245.075-37.255,0-54.579-41.615-40.131-72.349c1.779-3.789,3.934-5.365,5.901-4.39c2.496,1.201,3.064,3.829.983,7.805-7.413,14.26-6.807,30.433,2.195,43.68c4.349,6.379,10.136,12.007,17.587,14.597c7.375,2.551,21.824,3.602,29.048.15c1.853-.863,2.988-.45,4.047,1.276" fill="#263c46"/><path d="M120.176226,104.995034c5.672-.075,9.229,3.941,9.115,10.207-.077,5.217-3.745,8.782-8.851,8.668-3.896-.111-9.077-5.554-8.964-9.418.114-4.391,4.766-9.457,8.7-9.457" fill="#1a3d45"/><path d="M101.225526,72.386434c-.037,1.651.795,3.978-.906,5.215-2.383,1.726-5.145,3.04-7.907,4.128-1.323.526-2.495-.826-3.478-1.8-2.913-2.89-5.977-5.667-8.776-8.669-11.384-12.27-22.769-24.541-34.003-36.925-3.631-3.978-3.404-5.479,1.362-8.217c11.157-6.342,22.354-12.759,35.062-15.798c6.355-1.539,7.187-1.502,8.132,5.065.946,6.754,2.723,13.321,3.631,20.001c1.324,10.02,4.236,19.626,5.901,29.533.416,2.401.831,4.802.982,7.467" fill="#949492"/></g></g></g><script><![CDATA[(function(s,i,u,o,c,w,d,t,n,x,e,p,a,b){(a=document.getElementById(i.root)).svgatorPlayer={ready:(function(a){b=[];return function(c){return c?(b.push(c),a.svgatorPlayer):b}})(a)};w[o]=w[o]||{};w[o][s]=w[o][s]||[];w[o][s].push(i);e=d.createElementNS(n,t);e.async=true;e.setAttributeNS(x,'href',[u,s,'.','j','s','?','v','=',c].join(''));e.setAttributeNS(null,'src',[u,s,'.','j','s','?','v','=',c].join(''));p=d.getElementsByTagName(t)[0];p.parentNode.insertBefore(e,p);})('91c80d77',{"root":"ezw2PRdLujh1","version":"2022-05-04","animations":[{"elements":{"ezw2PRdLujh17":{"transform":{"data":{"o":{"x":120.257267,"y":115.003372,"type":"corner"},"t":{"x":-120.257267,"y":-115.003372}},"keys":{"r":[{"t":0,"v":0},{"t":3000,"v":360}]}}}},"s":"MDJA1M2IxNTg5YAWFiYTg5N2FhAOWZhNWE0NTgC3MDY5NjY2NjRY2NjI1ODlhOOWZhODliOTlhHYUI5ZmE1YTQR1ODcwNjc2MjUU4OWZhYTliYJTg5N2FhOWZhANWE0YTk1OEwF3MDY2NjI1ODOljOWZhMk1hMGjU4NzA2N0U2OMjU4OTdhMmFEhSDliVmE4YTLQ5N2FhOWI1OWDcwOWM5N1FhVMmE5OWI2MjUY4YTlJYTY5YjEliOWFQNTg3MMDY3YjM/"}],"options":"MDUAxZTkwMzc4OLDg5NzY4Nzg5PRTM3NGYzN1gC4ODc4ODdWODCQ4MTgxMzc0MITM3ODg3ODg3TODQ4MTgxMzcD0ZjQ4NDY5MgM|"},'https://cdn.svgator.com/ply/','__SVGATOR_PLAYER__','2022-05-04',window,document,'script','http://www.w3.org/2000/svg','http://www.w3.org/1999/xlink')]]></script></svg>
