<?xml version="1.0" encoding="UTF-8"?>
<svg width="382px" height="262px" viewBox="0 0 382 262" version="1.1" xmlns="http://www.w3.org/2000/svg" xmlns:xlink="http://www.w3.org/1999/xlink">
    <title>coffee-icon</title>
    <defs>
        <polygon id="path-1" points="0 0 295.8379 0 295.8379 179.755754 0 179.755754"></polygon>
        <polygon id="path-3" points="0 0 252.159464 0 252.159464 193.099853 0 193.099853"></polygon>
    </defs>
    <g id="Page-1" stroke="none" stroke-width="1" fill="none" fill-rule="evenodd">
        <g id="Artboard" transform="translate(-9.000000, -9.000000)">
            <g id="coffee-icon" transform="translate(9.000000, 9.000000)">
                <g id="leaf">
                    <g id="Fill-1-Clipped">
                        <mask id="mask-2" fill="white">
                            <use xlink:href="#path-1"></use>
                        </mask>
                        <g id="path-1"></g>
                        <path d="M295.8379,118.6499 C273.2099,122.7319 252.8379,144.7659 238.9519,155.3129 C227.9509,163.6689 204.2019,177.3579 169.3149,179.4579 C122.6859,182.2649 89.0909,165.0919 59.6709,133.8649 C36.1959,108.9489 7.7249,53.4719 -0.0001,34.8799 C54.9179,75.7689 100.0859,39.1109 153.0339,65.8819 C147.5949,44.3849 145.6419,22.0539 144.0069,-0.0001 C157.0599,25.9469 177.1129,34.4939 197.7939,38.0739 C222.6189,42.3699 243.0959,44.2419 256.0809,57.1829 C271.5459,72.5979 282.6459,104.8499 295.8379,118.6499" id="Fill-1" fill="#020302" fill-rule="nonzero" mask="url(#mask-2)"></path>
                    </g>
                    <path d="M264.0137,102.0044 C260.8467,100.5884 256.7467,98.5984 253.4807,97.2404 C242.5557,80.7994 248.9437,68.5484 240.9027,50.8924 C246.3887,53.1994 250.2587,55.2124 254.0277,59.3994 C258.6717,75.0464 253.3837,86.3164 264.0137,102.0044" id="Fill-4" fill="#81AE43" fill-rule="nonzero"></path>
                    <path d="M257.208,102.8252 C261.091,104.4642 265.472,106.1142 268.24,107.9022 C253.77,108.3952 251.358,115.4612 235.683,120.934519 C232.217,120.9492 219.274,119.9142 216.018,119.4292 C229.889,115.0682 241.613,104.0552 257.208,102.8252" id="Fill-6" fill="#8CC641" fill-rule="nonzero"></path>
                    <path d="M238.4585,49.9167 C246.3085,64.3007 241.5955,80.7297 250.3975,95.8927 C247.3765,94.6657 243.5625,92.9157 240.5245,91.6927 C230.5395,75.7777 239.2485,62.5827 227.3725,46.6617 C231.2555,47.5687 234.9875,48.6157 238.4585,49.9167" id="Fill-8" fill="#81AE43" fill-rule="nonzero"></path>
                    <path d="M241.0752,96.6274 C244.9202,98.0724 248.5452,99.4154 251.9242,100.7154 C237.2202,103.9804 226.8042,114.8064 212.6332,118.8444 C205.7662,117.4534 199.3512,114.9474 193.3662,111.4054 C210.4312,112.0024 224.0562,98.7454 241.0752,96.6274" id="Fill-10" fill="#8CC641" fill-rule="nonzero"></path>
                    <path d="M237.751,90.5398 C235.383,89.5858 232.662,88.1308 230.307,87.1558 C217.818,69.8758 224.391,60.0078 216.695,44.4588 C218.992,44.8778 221.259,45.3218 223.478,45.7938 C236.377,59.9908 230.118,76.5158 237.751,90.5398" id="Fill-12" fill="#81AE43" fill-rule="nonzero"></path>
                    <path d="M227.8564,91.4006 C230.5904,92.5566 233.2514,93.6156 235.8284,94.6196 C220.0684,98.5176 207.9354,110.2146 190.1094,109.3486 C186.6744,107.0336 183.3834,104.3446 180.2224,101.2986 C197.4564,102.3006 209.3724,89.3116 227.8564,91.4006" id="Fill-14" fill="#8CC641" fill-rule="nonzero"></path>
                    <path d="M212.9072,43.7705 C222.8422,56.9325 215.3762,68.0825 226.5332,85.4275 C222.9652,83.9085 219.4402,82.3435 216.0122,80.7055 C206.4692,65.5615 212.7622,57.8665 203.4772,42.0865 C206.6262,42.6835 209.7852,43.2225 212.9072,43.7705" id="Fill-16" fill="#81AE43" fill-rule="nonzero"></path>
                    <path d="M221.1938,88.468 C205.0778,89.639 195.4678,100.138 178.4388,99.533 C174.9358,95.952 171.6148,91.914 168.4628,87.44 C183.6598,89.069 196.0238,82.411 209.8768,82.754 C213.6898,84.864 217.4748,86.742 221.1938,88.468" id="Fill-18" fill="#8CC641" fill-rule="nonzero"></path>
                    <path d="M199.7202,41.373 C210.4872,53.784 204.1352,63.485 211.0852,78.287 C208.4632,76.963 205.8832,75.575 203.3962,74.115 C193.9562,60.598 197.1532,51.837 192.0562,39.721 C194.5922,40.331 197.1492,40.862 199.7202,41.373" id="Fill-20" fill="#81AE43" fill-rule="nonzero"></path>
                    <path d="M216.5352,124.906 C213.6022,125.693 210.6872,126.385 207.7762,127.003 C206.2312,125.153 204.8772,123.264 203.6742,121.311 C207.8412,122.911 212.1332,124.138 216.5352,124.906" id="Fill-22" fill="#81AE43" fill-rule="nonzero"></path>
                    <path d="M205.2896,80.1206 C192.8736,81.1736 182.2866,86.7096 166.8786,85.1226 C164.8496,82.0146 162.9686,78.5496 161.2436,74.7786 C173.0586,77.9616 184.4666,73.7246 196.4886,74.4526 C199.4166,76.5006 202.3676,78.3816 205.2896,80.1206" id="Fill-24" fill="#8CC641" fill-rule="nonzero"></path>
                    <path d="M188.9243,38.9385 C194.7773,48.9095 191.8663,58.4725 198.3313,70.9925 C195.8103,69.3555 193.3823,67.6275 191.0773,65.8015 C184.2023,54.9725 184.4453,46.3445 181.8303,36.8615 C184.1633,37.6395 186.5313,38.3185 188.9243,38.9385" id="Fill-26" fill="#81AE43" fill-rule="nonzero"></path>
                    <path d="M200.187,119.8301 C201.677,122.4211 203.38,124.9731 205.417,127.4741 C202.107,128.0981 198.815,128.6281 195.537,129.0451 C186.668,122.3831 182.495,114.6731 178.825,106.0041 C185.193,111.5921 192.421,116.3681 200.187,119.8301" id="Fill-28" fill="#81AE43" fill-rule="nonzero"></path>
                    <path d="M199.1768,133.0376 C203.3658,132.5476 213.2448,130.1486 217.5508,129.3246 C193.4878,147.3566 200.6838,162.4086 189.3518,173.4686 C177.0658,175.7386 163.6338,176.9956 152.1658,176.4146 C175.9078,166.8436 179.0158,144.6556 199.1768,133.0376" id="Fill-30" fill="#8CC641" fill-rule="nonzero"></path>
                    <path d="M184.4717,64.7246 C187.0397,67.1556 189.6397,69.3806 192.2897,71.3946 C181.5867,71.9216 171.8127,75.5026 160.2917,72.6266 C158.7777,69.0876 157.4097,65.2816 156.1577,61.2326 C165.4377,65.8366 174.8907,64.7716 184.4717,64.7246" id="Fill-32" fill="#8CC641" fill-rule="nonzero"></path>
                    <path d="M178.7661,35.7898 C181.6821,43.5678 181.4391,51.5558 185.4101,60.9148 C182.8941,58.5628 180.4661,56.1038 178.0931,53.5588 C174.6191,46.2578 173.9721,39.8388 172.5141,33.1788 C174.5521,34.1248 176.6341,35.0088 178.7661,35.7898" id="Fill-34" fill="#81AE43" fill-rule="nonzero"></path>
                    <path d="M174.8247,54.4856 C177.1857,57.2526 179.5727,59.8666 181.9987,62.3096 C173.4187,62.7426 164.9517,63.5556 155.6037,59.3496 C154.6817,56.1496 153.8417,52.8046 153.0807,49.3166 C159.9237,53.0716 167.3387,53.8226 174.8247,54.4856" id="Fill-36" fill="#8CC641" fill-rule="nonzero"></path>
                    <path d="M169.5869,31.6965 C171.0449,36.8755 171.5529,42.2245 173.2309,48.0545 C170.1219,44.3575 167.1709,40.5385 164.3989,36.6115 C164.2309,33.8265 164.1859,31.1105 164.0359,28.3235 C165.8229,29.5575 167.6809,30.6865 169.5869,31.6965" id="Fill-38" fill="#81AE43" fill-rule="nonzero"></path>
                    <path d="M174.2803,101.7532 C178.2503,111.4782 182.5883,120.8572 192.4123,129.4122 C187.3593,129.9462 182.3663,130.2292 177.4523,130.2792 C153.8083,112.8852 155.9533,90.4132 129.1373,61.4522 C137.8903,63.4722 146.5303,66.7592 154.9573,72.0092 C158.5003,82.2402 165.3173,92.7692 174.2803,101.7532" id="Fill-40" fill="#81AE43" fill-rule="nonzero"></path>
                    <path d="M165.7314,42.8203 C168.0834,46.0823 170.4784,49.2073 172.8994,52.1813 C166.2054,51.7623 159.4824,50.8363 152.5494,46.8073 C151.9324,43.7653 151.3844,40.6193 150.8854,37.3523 C155.5494,40.2803 160.5654,41.7673 165.7314,42.8203" id="Fill-42" fill="#8CC641" fill-rule="nonzero"></path>
                    <path d="M180.6504,134.3408 C184.6494,134.2558 188.6774,134.0558 192.7874,133.7088 C176.2334,146.2908 174.0694,164.7038 147.9484,176.1228 C140.2834,175.4768 132.7734,174.1408 125.4314,172.0948 C150.6974,165.0008 156.1124,141.8028 180.6504,134.3408" id="Fill-44" fill="#8CC641" fill-rule="nonzero"></path>
                    <path d="M161.4253,26.4116 C161.6413,28.5266 161.7163,30.6526 161.7963,32.8136 C158.5743,27.9866 155.6193,23.0356 152.9733,18.0936 C155.5303,21.2966 158.3603,24.0426 161.4253,26.4116" id="Fill-46" fill="#81AE43" fill-rule="nonzero"></path>
                    <path d="M148.6792,15.6592 C153.5562,24.4532 158.7432,32.8932 164.1762,40.6432 C159.6312,39.7032 155.1092,38.2282 150.6042,35.3782 C149.7262,29.1692 149.0812,22.5852 148.6792,15.6592" id="Fill-48" fill="#8CC641" fill-rule="nonzero"></path>
                    <path d="M172.8364,130.2671 C167.6804,130.1821 162.5864,129.8641 157.6114,129.3201 C127.2554,108.3831 132.3614,87.1131 105.8984,58.5571 C111.8864,58.8061 117.8574,59.3331 123.7644,60.3671 C152.1234,84.9041 147.9284,111.9011 172.8364,130.2671" id="Fill-50" fill="#81AE43" fill-rule="nonzero"></path>
                    <path d="M158.7588,133.3899 C163.2658,133.8609 167.8708,134.1859 172.5638,134.3099 C152.6998,144.0209 146.7308,162.6649 121.7608,170.9809 C115.6628,169.0709 109.6948,166.6229 103.8398,163.6399 C128.4598,160.0029 140.6028,138.7739 158.7588,133.3899" id="Fill-52" fill="#8CC641" fill-rule="nonzero"></path>
                    <path d="M151.1655,128.5046 C146.7705,127.8636 142.4715,127.0576 138.2725,126.1216 C106.9695,104.8986 109.4185,85.0746 84.3925,58.5536 C90.3215,58.4116 96.2405,58.3096 102.1695,58.4416 C127.8325,82.0176 124.8165,108.5416 151.1655,128.5046" id="Fill-54" fill="#81AE43" fill-rule="nonzero"></path>
                    <path d="M135.9653,129.4365 C141.8373,130.8425 147.8763,131.9965 154.0883,132.8235 C136.7783,140.2865 125.8853,157.1695 100.8213,162.0655 C95.5523,159.2025 90.3793,155.9015 85.2943,152.1245 C112.7553,148.9815 117.5123,132.6655 135.9653,129.4365" id="Fill-56" fill="#8CC641" fill-rule="nonzero"></path>
                    <path d="M115.5112,123.2588 C120.3842,125.0308 125.3852,126.6298 130.5132,128.0378 C112.0552,134.2858 109.0952,147.0038 83.1612,150.5198 C78.6662,147.0638 74.2442,143.2458 69.8742,139.0518 C92.6432,138.0888 99.1662,125.7568 115.5112,123.2588" id="Fill-58" fill="#8CC641" fill-rule="nonzero"></path>
                    <path d="M80.7764,58.6347 C106.0714,80.4367 100.4914,102.0757 129.2774,123.8937 C121.0384,121.6257 113.2504,118.8817 106.0644,115.8717 C84.9844,98.0387 84.0224,81.2737 63.6954,58.7907 C69.3624,58.8847 75.0594,58.7527 80.7764,58.6347" id="Fill-60" fill="#81AE43" fill-rule="nonzero"></path>
                    <path d="M98.6626,116.1972 C102.6466,118.0722 106.7406,119.8532 110.9546,121.5172 C95.2576,125.8222 89.6136,135.8952 67.9176,137.1372 C63.3296,132.5652 58.8036,127.5792 54.3526,122.1392 C74.1636,125.0602 80.4116,115.5622 98.6626,116.1972" id="Fill-62" fill="#8CC641" fill-rule="nonzero"></path>
                    <path d="M99.6597,113.0534 C95.3647,111.0754 91.3277,109.0284 87.5397,106.9494 C60.0927,87.1324 60.1377,74.8304 44.3407,57.4434 C49.3107,58.1514 54.3427,58.5184 59.3877,58.6814 C80.2327,76.8904 78.4557,94.3134 99.6597,113.0534" id="Fill-64" fill="#81AE43" fill-rule="nonzero"></path>
                    <path d="M93.2959,113.5742 C79.3179,115.1782 71.4149,122.2612 52.3789,119.6792 C50.0839,116.7892 47.8239,113.8032 45.5699,110.6682 C58.8789,111.3742 65.3489,104.3022 81.2089,106.9882 C85.1089,109.2642 89.1409,111.4772 93.2959,113.5742" id="Fill-66" fill="#8CC641" fill-rule="nonzero"></path>
                    <path d="M65.8896,97.2795 C69.3696,99.6385 72.9546,101.9785 76.6556,104.2575 C62.7926,103.5875 56.5196,109.0835 43.7676,108.1555 C40.9186,104.1145 38.1076,99.9015 35.3286,95.4805 C46.1796,97.4475 53.3536,93.5825 65.8896,97.2795" id="Fill-68" fill="#8CC641" fill-rule="nonzero"></path>
                    <path d="M39.7427,56.6963 C53.3357,68.7993 56.8607,82.4363 70.8517,96.4713 C63.2877,91.1773 54.7817,85.1573 46.3557,78.7173 C39.0547,70.0603 35.7167,62.6223 31.1537,54.6803 C34.0047,55.5013 36.8577,56.1573 39.7427,56.6963" id="Fill-70" fill="#81AE43" fill-rule="nonzero"></path>
                    <path d="M48.7197,84.5381 C52.5757,87.6091 56.6147,90.6801 60.8277,93.7171 C50.3967,92.2151 43.7017,94.9241 33.8407,93.0891 C31.5357,89.3231 29.2457,85.4461 26.9597,81.4021 C34.3367,82.9841 40.3687,81.8891 48.7197,84.5381" id="Fill-72" fill="#8CC641" fill-rule="nonzero"></path>
                    <path d="M31.9609,70.2881 C35.8689,73.8051 40.0569,77.4521 44.5029,81.1181 C37.5029,79.7901 32.1139,80.3731 25.5469,78.8491 C23.6869,75.4881 21.8249,72.0371 19.9999,68.4881 C24.2319,69.6001 27.9779,69.8031 31.9609,70.2881" id="Fill-74" fill="#8CC641" fill-rule="nonzero"></path>
                    <path d="M27.3052,53.4912 C31.4332,59.8742 34.7572,66.5102 39.5172,73.3332 C28.5752,64.5432 18.3162,55.1592 11.0852,45.8462 C16.3852,49.1412 21.8152,51.6252 27.3052,53.4912" id="Fill-76" fill="#81AE43" fill-rule="nonzero"></path>
                    <path d="M29.1968,67.7842 C25.8458,67.5572 22.5838,67.3132 18.9358,66.4132 C16.4098,61.4292 13.8838,56.2642 11.4068,50.8862 C16.4108,55.7222 22.3468,61.5062 29.1968,67.7842" id="Fill-78" fill="#8CC641" fill-rule="nonzero"></path>
                    <path d="M270.9351,109.2055 C273.5801,110.3215 275.4781,111.1795 277.3641,112.3985 C267.5071,112.7345 265.5021,118.3565 257.8451,120.2535 C254.8541,120.4275 243.5891,121.1585 241.3711,120.8295 C250.8211,117.8575 257.7131,109.0645 270.9351,109.2055" id="Fill-80" fill="#8CC641" fill-rule="nonzero"></path>
                    <path d="M280.019,113.4599 C281.03,113.8869 286.486,116.5239 287.207,116.9899 C280.789,118.1019 270.781,119.7949 263.059,120.0979 C266.671,118.9619 271.686,113.3459 280.019,113.4599" id="Fill-82" fill="#8CC641" fill-rule="nonzero"></path>
                    <path d="M274.3169,107.0635 C271.9839,106.0205 268.7489,104.1005 266.3439,103.0995 C255.8289,88.7575 259.5459,72.2395 256.6429,61.8935 C260.0579,64.5375 264.4659,72.6125 266.7119,76.2835 C271.2769,88.1245 266.4879,95.5095 274.3169,107.0635" id="Fill-84" fill="#81AE43" fill-rule="nonzero"></path>
                    <path d="M281.2666,110.4443 C279.7646,109.7723 277.6836,108.5373 276.1346,107.8933 C269.3656,98.6623 271.7906,88.5253 269.9226,81.8653 C271.9236,84.5613 275.3086,91.9793 276.7526,94.3423 C279.4326,101.3323 276.5136,103.7713 281.2666,110.4443" id="Fill-86" fill="#81AE43" fill-rule="nonzero"></path>
                    <path d="M291.0933,116.1499 C290.2653,115.7799 284.0733,111.9929 283.2193,111.6389 C279.0463,106.4129 279.9973,101.9779 278.9673,98.3059 C282.3573,105.1109 287.9323,112.4339 291.0933,116.1499" id="Fill-88" fill="#81AE43" fill-rule="nonzero"></path>
                    <path d="M222.4272,127.9275 C225.0782,127.1455 228.4442,126.1245 231.6092,124.9965 C216.1792,147.4435 223.4352,151.2805 218.6082,163.7625 C210.6402,167.2395 204.0522,169.9425 193.2872,172.5695 C202.8652,160.4665 199.4492,142.6185 222.4272,127.9275" id="Fill-90" fill="#8CC641" fill-rule="nonzero"></path>
                    <path d="M234.1255,125.6518 C235.8485,125.6588 240.8205,125.8638 243.3405,125.5168 C236.1785,135.3538 241.1035,143.9128 238.6645,151.7138 C233.3655,155.3398 229.1055,158.7428 221.6645,162.1388 C225.3835,155.0768 219.7125,144.0728 234.1255,125.6518" id="Fill-92" fill="#8CC641" fill-rule="nonzero"></path>
                    <path d="M245.5405,125.4223 C246.6955,125.2623 250.7645,125.1233 253.0055,124.9633 C249.3205,130.6093 253.1295,134.5383 252.2275,140.0013 C249.0175,142.9373 245.8205,146.1593 241.5445,149.3963 C243.3735,144.3053 238.9445,134.9313 245.5405,125.4223" id="Fill-94" fill="#8CC641" fill-rule="nonzero"></path>
                    <path d="M255,124.8042 C255.837,124.6882 260.952,124.1902 262.576,124.0742 C260.329,126.3742 262.146,130.1342 261.683,131.8002 C259.355,133.9292 257.038,136.2642 253.938,138.6102 C255.134,135.2882 251.393,129.5122 255,124.8042" id="Fill-96" fill="#8CC641" fill-rule="nonzero"></path>
                    <path d="M264.0063,123.9145 C264.3983,123.8605 280.1123,121.7585 280.8733,121.7045 C272.2493,124.3575 266.3043,128.6315 263.2103,130.8625 C263.7703,129.3055 262.3163,126.1205 264.0063,123.9145" id="Fill-98" fill="#8CC641" fill-rule="nonzero"></path>
                </g>
                <g id="cup" transform="translate(129.793536, 41.012289)">
                    <g id="Fill-100-Clipped">
                        <mask id="mask-4" fill="white">
                            <use xlink:href="#path-3"></use>
                        </mask>
                        <g id="path-3"></g>
                        <path d="M4.12636385,98.2069106 C5.38336385,104.759911 8.27636385,110.218911 12.1633638,114.935911 L15.6513638,124.098911 C17.4733638,128.882911 20.1693638,133.254911 23.1453638,137.399911 C26.0843638,141.496911 28.6263638,145.822911 31.9393638,149.600911 C39.1023638,157.769911 47.2913638,165.252911 56.8343638,170.551911 L65.5563638,178.775911 C74.8103638,187.502911 89.1973638,192.023911 110.837364,193.002911 C111.621364,193.039911 112.577364,193.069911 113.676364,193.085911 C124.694364,193.261911 150.122364,191.971911 162.968364,177.517911 C169.632364,170.025911 176.763364,162.077911 182.515364,153.878911 L188.090364,145.930911 C194.371364,140.919911 198.503364,134.781911 201.543364,126.435911 L203.599364,120.783911 C206.218364,122.907911 209.573364,124.294911 209.626364,124.311911 C211.007364,124.762911 212.465364,124.998911 213.992364,125.022911 C215.814364,125.051911 217.737364,124.775911 219.735364,124.199911 C227.140364,122.066911 233.007364,116.473911 236.778364,112.452911 C249.361364,99.0219106 254.689364,82.0119106 251.024364,66.9489106 C249.222364,59.5579106 244.489364,49.8249106 236.593364,44.6699106 C232.489364,41.9899106 227.543364,41.0869106 223.008364,42.1919106 C222.931364,42.2109106 218.114364,43.6109106 214.633364,46.3349106 C213.672364,40.0029106 211.084364,33.7809106 206.792364,27.8779106 C199.297364,17.5659106 187.093364,10.3259106 169.488364,5.73791061 C157.876364,2.70991061 145.222364,1.00091061 129.665364,0.358910613 C113.893364,-0.288089387 101.791364,-0.0680893871 90.4423638,1.08191061 C74.3913638,2.70791061 59.2903638,6.20891061 45.5663638,11.4839106 C30.6013638,17.2389106 19.7213638,24.3169106 12.3053638,33.1259106 C5.25236385,41.5009106 2.07836385,51.4309106 2.94336385,62.1749106 L1.03836385,70.4469106 C-0.949636153,79.0769106 0.0563638473,85.9559106 2.87036385,91.6659106 L4.12636385,98.2069106 Z M214.827364,82.6449106 C215.824364,77.3419106 216.646364,72.6309106 216.458364,72.5899106 C218.198364,72.9689106 220.034364,73.8539106 221.687364,72.4879106 C222.661364,71.6869106 223.133364,70.4469106 223.747364,69.3439106 C224.358364,68.2389106 225.298364,67.1399106 226.560364,67.0469106 C227.713364,66.9649106 228.780364,67.7999106 229.312364,68.8269106 C229.846364,69.8559106 229.947364,71.0459106 230.009364,72.2039106 C230.518364,81.7849106 228.699364,91.8809106 222.765364,99.4199106 C222.054364,100.324911 220.871364,101.264911 219.887364,100.675911 C219.121364,100.218911 219.070364,99.1559106 218.674364,98.3609106 C218.121364,97.2409106 216.832364,96.6409106 215.587364,96.5659106 C214.343364,96.4899106 213.117364,96.8499106 211.923364,97.2079106 C212.201364,96.1139106 213.639364,88.9599106 214.827364,82.6449106 L214.827364,82.6449106 Z" id="Fill-100" fill="#020302" fill-rule="nonzero" mask="url(#mask-4)"></path>
                    </g>
                    <path d="M234.110264,74.105411 C234.382264,77.780411 233.868264,81.583411 233.123264,84.265411 C230.831264,92.492411 226.260264,102.042411 219.826264,107.868411 C216.205264,111.147411 219.780264,104.935411 217.615264,102.648411 C216.146264,101.075411 214.084264,100.231411 210.848264,101.647411 C210.034264,105.253411 208.808264,108.718411 207.131264,112.020411 C206.563264,113.110411 205.939264,114.191411 205.273264,115.253411 C204.578264,116.364411 210.281264,119.534411 211.091264,119.797411 C213.495264,120.578411 216.031264,120.328411 218.422264,119.639411 C224.244264,117.960411 229.261264,113.531411 233.313264,109.207411 C243.485264,98.354411 250.065264,83.087411 246.411264,68.071411 C244.684264,60.980411 240.283264,52.745411 233.998264,48.643411 C231.119264,46.764411 227.482264,45.984411 224.131264,46.803411 C222.573264,47.184411 215.656264,50.291411 215.864264,52.338411 C216.301264,56.695411 215.911264,61.124411 215.120264,65.094411 C216.049264,66.622411 217.643264,68.454411 219.877264,68.458411 C223.324264,68.457411 221.555264,61.915411 226.199264,62.724411 C231.642264,63.676411 233.709264,68.754411 234.110264,74.105411" id="Fill-103" fill="#FEF6AD" fill-rule="nonzero"></path>
                    <path d="M209.34465,89.934911 C209.392664,96.817911 207.593664,103.606911 203.697664,110.032911 C199.877664,116.329911 194.028664,122.286911 185.886664,127.597911 C143.459664,155.288911 69.791664,146.997911 36.821664,128.094911 C22.242664,119.733911 11.450664,111.186911 8.786664,97.311911 C14.560664,103.352911 22.525664,108.642911 30.729664,113.576911 C33.526664,115.257911 36.491664,116.862911 39.640664,118.376911 C77.836664,137.016911 139.248664,143.247911 185.898664,112.303911 C196.255664,105.435911 204.173664,97.859911 209.34465,89.934911" id="Fill-105" fill="#B7885C" fill-rule="nonzero"></path>
                    <path d="M183.764064,99.727411 C197.049064,91.274411 206.936064,80.910411 211.895064,70.102411 C211.246064,84.588411 200.929064,98.697411 182.418064,110.253411 C137.512064,138.252411 77.453064,133.835411 40.966064,115.674411 C38.523064,114.459411 36.188064,113.186411 33.992064,111.861411 C17.861064,102.193411 0.601064,93.484411 5.664064,71.513411 C8.879064,91.428411 45.172064,109.821411 77.381064,115.890411 C100.022064,120.142411 125.285064,118.854411 146.909064,113.938411 C161.461064,110.634411 174.378064,105.702411 183.764064,99.727411" id="Fill-107" fill="#FCEA78" fill-rule="nonzero"></path>
                    <path d="M202.953564,30.667411 C194.848564,19.518411 181.233564,13.702411 168.291564,10.331411 C155.616564,7.027411 142.529564,5.642411 129.471564,5.103411 C116.637564,4.573411 103.708564,4.507411 90.919564,5.805411 C76.072564,7.310411 61.222564,10.551411 47.270564,15.914411 C35.766564,20.337411 23.987564,26.619411 15.936564,36.179411 C8.097564,45.489411 5.883564,56.671411 8.764564,68.469411 C13.490564,87.820411 35.656564,97.323411 52.624564,103.433411 C61.964564,106.797411 71.628564,109.364411 81.442564,110.883411 C102.685564,114.191411 125.467564,113.746411 145.751564,109.137411 C157.924564,106.369411 169.208564,102.095411 178.705564,96.234411 C181.304564,94.645411 183.766564,92.980411 186.064564,91.264411 C209.373564,73.864411 217.577564,50.786411 202.953564,30.667411 M184.124564,87.680411 C181.425564,89.702411 178.509564,91.541411 175.407564,93.169411 C150.069564,106.426411 116.556564,109.390411 84.428564,104.455411 C63.992564,101.318411 40.695564,94.972411 24.602564,81.457411 C20.816564,78.275411 16.738564,73.885411 14.899564,69.238411 C7.086564,49.489411 22.513564,31.645411 39.411564,23.291411 C45.473564,20.292411 51.950564,18.186411 58.542564,16.669411 C64.870564,15.213411 71.290564,13.707411 77.734564,12.850411 C84.482564,11.949411 91.264564,11.298411 98.060564,10.896411 C119.505564,9.628411 142.280564,9.987411 163.289564,14.806411 C181.776564,19.053411 204.045564,31.389411 204.174726,52.691411 C204.258564,66.772411 195.074564,79.468411 184.124564,87.680411" id="Fill-109" fill="#FEF6AD" fill-rule="nonzero"></path>
                    <path d="M182.586864,134.210111 C188.404864,131.419111 193.191864,128.269111 197.084864,124.811111 C192.823864,136.510111 186.239864,143.506111 172.492864,149.546111 C130.654864,167.917111 74.157864,163.484111 43.170864,147.565111 C30.784864,141.192111 24.177864,133.148111 20.086864,122.407111 C23.817864,125.156111 28.044864,127.754111 32.656864,130.290111 C66.196864,148.710111 132.858864,158.156111 182.586864,134.210111" id="Fill-111" fill="#FCEA78" fill-rule="nonzero"></path>
                    <path d="M178.629364,151.152511 C170.419364,162.856511 157.499364,171.692511 140.279364,175.091511 C115.622364,179.951511 89.734364,177.707511 69.504364,171.019511 C57.327364,166.998511 47.108364,159.105511 39.761364,150.555511 C76.275364,168.850511 134.775364,171.079511 178.629364,151.152511" id="Fill-113" fill="#B7885C" fill-rule="nonzero"></path>
                    <path d="M199.992564,50.330011 C199.352564,42.299011 196.408564,35.811011 191.149564,30.647011 C176.993564,16.751011 153.594564,13.758011 134.846564,13.057011 C106.673564,12.002011 76.471564,12.407011 49.675564,22.314011 C34.268564,28.010011 15.108564,39.525011 15.596564,58.186011 C16.114564,77.955011 38.561564,87.681011 54.492564,93.059011 C72.184564,99.032011 90.982564,102.666011 109.603564,104.028011 C130.381564,105.533011 151.606564,101.681011 170.093564,91.929011 C185.182564,83.972011 201.516564,69.024011 199.992564,50.330011 M82.249564,54.755011 C95.803564,59.658011 113.262564,60.819011 129.932564,58.264011 C140.184564,56.674011 137.920564,52.586011 127.003564,50.626011 C119.688564,49.303011 95.054564,48.111011 94.433564,49.898011 C93.650564,52.142011 109.116564,52.579011 116.361564,54.107011 C103.736564,56.178011 86.002564,52.619011 86.952564,48.524011 C87.813564,44.778011 118.653564,47.069011 127.946564,48.592011 C141.083564,50.772011 149.127564,56.331011 132.711564,61.125011 C131.569564,61.459011 130.120564,61.722011 128.416564,61.948011 C116.463564,63.537011 92.235564,62.542011 81.345564,58.076011 C64.080564,50.991011 68.703564,39.271011 85.366564,36.674011 C97.965564,34.698011 120.643564,34.687011 130.289564,39.283011 C118.029564,37.022011 99.356564,38.206011 88.260564,39.953011 C71.053564,42.634011 72.044564,51.060011 82.249564,54.755011 M136.231564,38.860011 C151.358564,37.146011 167.628564,46.330011 166.873564,53.926011 C166.089564,61.948011 146.624564,69.612011 123.292564,71.869011 C120.851564,72.097011 118.375564,72.276011 115.881564,72.394011 C94.326564,73.354011 53.424564,67.389011 53.999564,45.353011 C60.361564,65.271011 92.679564,71.181011 117.378564,68.851011 C120.517564,68.548011 123.723564,68.196011 126.896564,67.767011 C145.103564,65.366011 162.535564,60.840011 163.339564,53.412011 C164.180564,45.828011 147.634564,40.958011 136.231564,38.860011 M175.548564,78.833011 C174.139564,84.564011 167.824564,86.668011 163.885564,86.588011 C162.507564,89.482011 160.824564,91.242011 158.941564,92.237011 C155.929564,93.813011 152.384564,93.382011 148.749564,92.235011 C145.584564,97.756011 136.702564,99.648011 130.448564,94.911011 C127.324564,98.345011 123.029564,100.640011 116.887564,96.752011 C111.120564,100.645011 107.835564,99.689011 104.156564,94.975011 C98.842564,98.830011 92.319564,99.288011 88.437564,92.598011 C83.842564,95.097011 76.813564,95.255011 71.972564,88.406011 C68.291564,90.335011 58.797564,90.387011 55.209564,83.348011 C51.023564,84.445011 44.428564,84.377011 42.083564,77.941011 C36.867564,78.651011 31.222564,77.963011 29.087564,71.167011 C27.272564,70.530011 24.536564,69.583011 23.444564,67.859011 C21.850564,65.339011 23.493564,62.215011 23.039564,59.660011 C23.431564,61.865011 24.845564,64.518011 26.578564,65.981011 C27.125564,66.441011 32.582564,68.425011 32.544564,67.937011 C33.087564,74.902011 39.318564,75.499011 43.547564,74.524011 C45.588564,84.535011 52.075564,81.290011 55.841564,78.231011 C60.756564,89.559011 67.970564,87.640011 72.560564,83.195011 C76.688564,90.813011 83.171564,92.943011 89.426564,86.449011 C89.190564,93.523011 97.487564,95.673011 104.341564,90.704011 C107.118564,97.444011 112.333564,98.002011 116.854564,91.328011 C121.367564,98.248011 127.764564,97.020011 130.008564,90.453011 C135.009564,96.445011 143.610564,97.223011 148.181564,89.346011 C155.233564,93.529011 162.360564,88.454011 161.639564,84.260011 C167.330564,84.912011 172.350564,81.537011 174.101564,77.394011 C174.938564,75.390011 177.662564,73.400011 180.949564,74.559011 C177.425564,75.759011 176.059564,76.770011 175.548564,78.833011 M182.562564,50.746011 C180.301564,70.259011 145.646564,80.089011 113.152564,81.867011 C105.802564,82.270011 97.801564,81.848011 89.881564,80.729011 C77.160564,78.938011 63.973564,75.618011 52.762564,69.155011 C45.293564,64.847011 35.422564,55.903011 40.460564,46.209011 C41.583564,44.045011 43.276564,42.239011 44.945564,40.463011 C40.650564,45.031011 42.081564,54.896011 45.725564,59.379011 C49.275564,63.743011 54.576564,66.638011 59.614564,68.923011 C73.307564,75.142011 88.894564,77.967011 103.859564,78.486011 C106.564564,78.579011 109.271564,78.583011 111.973564,78.475011 C115.339564,78.332011 118.772564,78.111011 122.207564,77.763011 C149.006564,75.157011 176.677564,66.316011 178.688564,50.617011 C180.379564,37.372011 153.466564,30.731011 121.867564,28.711011 C105.893564,27.671011 89.056564,28.270011 73.435564,28.861011 C90.742564,25.244011 107.405564,25.687011 121.878564,26.117011 C125.611564,26.227011 129.202564,26.418011 132.651564,26.719011 C164.265564,29.261011 183.955564,38.613011 182.562564,50.746011 M134.765564,22.555011 C134.106564,22.522011 133.473564,22.520011 132.827564,22.504011 C134.235564,22.120011 135.816564,21.834011 137.511564,21.663011 C155.119564,19.742011 185.950564,28.507011 191.118564,40.201011 C181.647564,29.918011 155.082564,23.168011 134.765564,22.555011" id="Fill-115" fill="#8A5A43" fill-rule="nonzero"></path>
                    <path d="M159.423764,174.363711 C149.602764,185.412711 128.917764,189.057711 111.047764,188.260711 C90.072764,187.311711 76.904764,182.951711 68.811764,175.322711 C93.544764,183.131711 135.041764,184.363711 159.423764,174.363711" id="Fill-117" fill="#FEF6AD" fill-rule="nonzero"></path>
                </g>
                <g id="beans" transform="translate(132.485650, 168.318165)" fill-rule="nonzero">
                    <path d="M60.3419497,3.79213504 C47.8929497,-2.91386496 28.7389497,-0.538864962 14.8019497,9.43813504 C8.38094975,14.033135 3.91694975,19.721135 1.67094975,25.947135 C-0.937050251,33.165135 -0.543050251,41.556135 3.21194975,48.311135 C7.39194975,55.823135 16.6629497,59.001135 24.7199497,59.760135 C23.5949497,63.518135 22.5979497,69.154135 24.0949497,72.890135 C26.3989497,78.634135 28.7919497,83.540135 33.8859497,87.301135 C38.7459497,90.888135 44.6809497,92.799135 50.6539497,93.350135 C63.0339497,94.493135 75.4529497,89.949135 82.6379497,81.741135 C87.4569497,85.756135 93.0259497,88.783135 98.9499497,90.254135 C110.02795,93.003135 121.06295,87.483135 127.04195,78.074135 C133.97495,67.159135 132.79295,53.176135 125.87495,42.518135 C125.32295,41.668135 124.73695,40.845135 124.11195,40.048135 C117.05095,31.046135 106.69295,24.318135 96.3959497,22.051135 C86.9879497,19.980135 77.5539497,21.953135 72.4249497,30.900135 C72.1839497,28.120135 73.0319497,25.710135 72.9589497,23.025135 C72.8829497,20.376135 72.1489497,17.676135 71.0859497,15.265135 C68.9199497,10.360135 65.0469497,6.32413504 60.3419497,3.79213504" id="Fill-119" fill="#020302"></path>
                    <path d="M80.0817497,78.390535 C68.2837497,92.867535 39.3027497,93.709535 30.1537497,76.948535 C59.0137497,78.625535 57.8957497,69.480535 70.8187497,65.780535 C72.9757497,70.131535 76.0277497,74.379535 80.0817497,78.390535" id="Fill-121" fill="#944B2E"></path>
                    <path d="M28.5509497,73.148335 C27.1879497,68.576335 27.5349497,63.723335 29.2579497,59.216335 C32.6169497,59.136335 36.0529497,58.749335 39.4449497,58.064335 C50.2519497,55.918335 60.7139497,50.842335 67.1579497,43.360335 C66.8389497,45.492335 66.7069497,47.672335 66.7749497,49.868335 C66.8469497,52.102335 67.0979497,54.364335 67.5929497,56.621335 C52.9169497,58.286335 50.5449497,73.303335 28.5509497,73.148335" id="Fill-123" fill="#AA573B"></path>
                    <path d="M69.1759497,61.985235 C60.0639497,66.688235 53.4419497,75.340235 39.3219497,74.679235 C50.9979497,70.960235 58.1589497,62.893235 68.4299497,59.806235 C68.6569497,60.524235 68.9009497,61.248235 69.1759497,61.985235" id="Fill-125" fill="#672E1B"></path>
                    <path d="M115.87665,84.793135 C111.05465,87.192135 105.22665,87.545135 99.9486497,86.237135 C84.3286497,82.364135 70.6786497,66.043135 70.4016497,49.829135 C70.3066497,44.235135 71.6876497,38.801135 74.2916497,33.974135 C77.4996497,45.259135 81.8586497,52.729135 86.6636497,58.135135 C91.1756497,63.199135 97.0096497,67.440135 103.02065,70.573135 C109.22565,73.805135 114.70265,77.120135 119.08965,82.762135 C118.08765,83.553135 117.00965,84.231135 115.87665,84.793135" id="Fill-127" fill="#944B2E"></path>
                    <path d="M115.51485,74.504035 C109.97785,69.210035 97.2758497,66.383035 88.4628497,56.781035 C86.0068497,54.096035 83.8368497,50.880035 82.2298497,46.930035 C88.4718497,53.958035 95.0158497,56.881035 100.87485,60.045035 C106.75585,63.199035 111.95185,66.591035 115.51485,74.504035" id="Fill-131" fill="#672E1B"></path>
                    <path d="M116.35325,68.248735 C112.64625,63.638735 107.80525,60.410735 102.26625,57.440735 C92.7282497,52.331735 82.3392497,47.664735 76.8842497,30.213735 C76.7062497,29.636735 80.0152497,27.701735 80.4772497,27.448735 C81.8852497,26.681735 83.4102497,26.152735 84.9762497,25.821735 C88.4412497,25.088735 92.0672497,25.335735 95.5062497,26.091735 C105.23025,28.233735 114.73725,34.796735 120.85525,42.600735 C127.20725,50.698735 129.14625,61.424735 125.54225,71.122735 C124.46225,74.037735 123.76425,76.630735 121.63325,79.022735 C122.40725,78.147735 120.36825,74.795735 119.97425,73.981735 C118.93625,71.843735 117.72325,69.951735 116.35325,68.248735" id="Fill-135" fill="#AA573B"></path>
                    <path d="M38.8654497,54.898635 C24.4484497,57.704635 9.52344975,54.504635 5.46444975,43.455635 C31.0444497,43.743635 37.7814497,33.896635 49.0314497,27.981635 C54.1554497,25.300635 60.2054497,23.422635 69.3784497,23.683635 C71.7184497,40.272635 55.6214497,51.624635 38.8654497,54.898635" id="Fill-129" fill="#944B2E"></path>
                    <path d="M4.46844975,39.520935 C0.0834497488,13.303935 38.5544497,-3.24406496 58.3794497,7.43193504 C62.9724497,9.89693504 66.5574497,13.811935 68.3924497,19.415935 C62.5214497,17.837935 57.5524497,17.243935 53.1874497,17.350935 C32.2324497,17.891935 25.7664497,35.023935 4.46844975,39.520935" id="Fill-133" fill="#AA573B"></path>
                    <path d="M49.0983497,25.254535 C39.7943497,30.185535 28.7983497,38.139535 19.0753497,39.254535 C26.3213497,31.312535 40.3933497,20.593535 53.3443497,20.289535 C55.7623497,20.227535 58.1373497,20.543535 60.4293497,21.296535 C57.2033497,21.366535 53.3203497,22.996535 49.0983497,25.254535" id="Fill-137" fill="#672E1B"></path>
                </g>
            </g>
        </g>
    </g>
</svg>