<?xml version="1.0" encoding="UTF-8"?>
<svg width="159px" height="138px" viewBox="0 0 159 138" version="1.1" xmlns="http://www.w3.org/2000/svg" xmlns:xlink="http://www.w3.org/1999/xlink">
    <title>down-arrow</title>
    <g id="Page-1" stroke="none" stroke-width="1" fill="none" fill-rule="evenodd">
        <g id="Artboard" transform="translate(-32.000000, -31.000000)" fill="#FF4438">
            <g id="down-arrow" transform="translate(32.000000, 31.000000)">
                <path d="M77.7805,36.2762211 L77.7805,89.7212211 L70.1845,82.1262211 C69.7845,81.7252211 69.1335,81.7252211 68.7335,82.1262211 C68.3325,82.5272211 68.3325,83.1762211 68.7335,83.5772211 L77.9695,92.8142211 C78.1555,93.0772211 78.4605,93.2492211 78.8075,93.2492211 C78.8125,93.2492211 78.8175,93.2482211 78.8225,93.2482211 C78.8335,93.2482211 78.8445,93.2452211 78.8555,93.2452211 C78.9555,93.2402211 79.0515,93.2202211 79.1425,93.1892211 C79.2005,93.1702211 79.2525,93.1442211 79.3065,93.1152211 C79.3525,93.0892211 79.3965,93.0602211 79.4375,93.0282211 C79.4765,92.9992211 79.5215,92.9842211 79.5565,92.9492211 L88.9955,83.5102211 C89.1955,83.3092211 89.2965,83.0462211 89.2965,82.7842211 C89.2965,82.5212211 89.1955,82.2582211 88.9955,82.0582211 C88.5945,81.6572211 87.9445,81.6572211 87.5435,82.0582211 L79.8335,89.7682211 L79.8335,36.2762211 C79.8335,35.7092211 79.3745,35.2492211 78.8075,35.2492211 C78.2395,35.2492211 77.7805,35.7092211 77.7805,36.2762211" id="Fill-1"></path>
                <path d="M118.132,137.249121 L158.053,69.0541211 L118.952,0.383121109 C118.952,0.383121109 40.108,-0.0078788912 39.877,0 C39.769,0.190121109 0,68.0851211 0,68.0851211 L39.091,136.765121 L118.132,137.249121 Z M39.079,91.3451211 C26.481,69.2861211 34.159,41.2111211 56.211,28.6191211 C78.252,16.0311211 106.342,23.6991211 118.941,45.7581211 C131.514,67.7951211 123.861,95.8931211 101.787,108.476121 C79.728,121.053121 51.66,113.393121 39.079,91.3451211 L39.079,91.3451211 Z" id="Fill-3"></path>
            </g>
        </g>
    </g>
</svg>