<?xml version="1.0" encoding="UTF-8"?>
<svg width="1020px" height="329px" viewBox="0 0 1020 329" version="1.1" xmlns="http://www.w3.org/2000/svg" xmlns:xlink="http://www.w3.org/1999/xlink">
    <title>for-good</title>
    <defs>
        <polygon id="path-1" points="0 0 701.8005 0 701.8005 328.641 0 328.641"></polygon>
    </defs>
    <g id="Page-1" stroke="none" stroke-width="1" fill="none" fill-rule="evenodd">
        <g id="Artboard" transform="translate(-32.000000, -582.000000)">
            <g id="for-good" transform="translate(32.000000, 582.000000)">
                <g id="Group-6" transform="translate(306.584500, 0.000000)">
                    <path d="M79.865,191.86 L102.815,191.86 L102.815,251.071 C102.815,274.02 92.717,282.282 76.652,282.282 C60.587,282.282 50.489,274.02 50.489,251.071 L50.489,77.57 C50.489,54.62 60.587,45.899 76.652,45.899 C92.717,45.899 102.815,54.62 102.815,77.57 L102.815,111.995 L150.55,111.995 L150.55,80.783 C150.55,29.375 124.847,0 75.275,0 C25.703,0 5.68434189e-14,29.375 5.68434189e-14,80.783 L5.68434189e-14,247.858 C5.68434189e-14,299.265 25.703,328.641 75.275,328.641 C124.847,328.641 150.55,299.265 150.55,247.858 L150.55,145.96 L79.865,145.96 L79.865,191.86 Z M229.497,77.57 C229.497,54.62 239.595,45.899 255.66,45.899 C271.725,45.899 281.823,54.62 281.823,77.57 L281.823,251.071 C281.823,274.02 271.725,282.741 255.66,282.741 C239.595,282.741 229.497,274.02 229.497,251.071 L229.497,77.57 Z M179.008,247.858 C179.008,299.265 206.089,328.641 255.66,328.641 C305.232,328.641 332.313,299.265 332.313,247.858 L332.313,80.783 C332.313,29.375 305.232,0 255.66,0 C206.089,0 179.008,29.375 179.008,80.783 L179.008,247.858 Z M411.258,77.57 C411.258,54.62 421.356,45.899 437.421,45.899 C453.486,45.899 463.584,54.62 463.584,77.57 L463.584,251.071 C463.584,274.02 453.486,282.741 437.421,282.741 C421.356,282.741 411.258,274.02 411.258,251.071 L411.258,77.57 Z M360.769,247.858 C360.769,299.265 387.849,328.641 437.421,328.641 C486.993,328.641 514.073,299.265 514.073,247.858 L514.073,80.783 C514.073,29.375 486.993,0 437.421,0 C387.849,0 360.769,29.375 360.769,80.783 L360.769,247.858 Z M546.66,324.969 L626.526,324.969 C677.015,324.969 701.801,296.97 701.801,245.563 L701.801,83.078 C701.801,31.67 677.015,3.672 626.526,3.672 L546.66,3.672 L546.66,324.969 Z M625.608,49.571 C641.672,49.571 651.311,57.833 651.311,80.783 L651.311,247.858 C651.311,270.807 641.672,279.069 625.608,279.069 L597.15,279.069 L597.15,49.571 L625.608,49.571 Z" id="Fill-1" fill="#FF4438"></path>
                    <g id="Group-5" transform="translate(11.592000, 0.000000)">
                        <mask id="mask-2" fill="white">
                            <use xlink:href="#path-1"></use>
                        </mask>
                        <g id="Clip-4"></g>
                        <path d="M79.865,191.86 L102.815,191.86 L102.815,251.071 C102.815,274.02 92.717,282.282 76.652,282.282 C60.587,282.282 50.489,274.02 50.489,251.071 L50.489,77.57 C50.489,54.62 60.587,45.899 76.652,45.899 C92.717,45.899 102.815,54.62 102.815,77.57 L102.815,111.995 L150.55,111.995 L150.55,80.783 C150.55,29.375 124.847,0 75.275,0 C25.703,0 0,29.375 0,80.783 L0,247.858 C0,299.265 25.703,328.641 75.275,328.641 C124.847,328.641 150.55,299.265 150.55,247.858 L150.55,145.96 L79.865,145.96 L79.865,191.86 Z M229.497,77.57 C229.497,54.62 239.595,45.899 255.66,45.899 C271.725,45.899 281.823,54.62 281.823,77.57 L281.823,251.071 C281.823,274.02 271.725,282.741 255.66,282.741 C239.595,282.741 229.497,274.02 229.497,251.071 L229.497,77.57 Z M179.008,247.858 C179.008,299.265 206.089,328.641 255.66,328.641 C305.232,328.641 332.313,299.265 332.313,247.858 L332.313,80.783 C332.313,29.375 305.232,0 255.66,0 C206.089,0 179.008,29.375 179.008,80.783 L179.008,247.858 Z M411.258,77.57 C411.258,54.62 421.356,45.899 437.421,45.899 C453.486,45.899 463.584,54.62 463.584,77.57 L463.584,251.071 C463.584,274.02 453.486,282.741 437.421,282.741 C421.356,282.741 411.258,274.02 411.258,251.071 L411.258,77.57 Z M360.769,247.858 C360.769,299.265 387.849,328.641 437.421,328.641 C486.993,328.641 514.073,299.265 514.073,247.858 L514.073,80.783 C514.073,29.375 486.993,0 437.421,0 C387.849,0 360.769,29.375 360.769,80.783 L360.769,247.858 Z M546.66,324.969 L626.526,324.969 C677.015,324.969 701.801,296.97 701.801,245.563 L701.801,83.078 C701.801,31.67 677.015,3.672 626.526,3.672 L546.66,3.672 L546.66,324.969 Z M625.608,49.571 C641.672,49.571 651.311,57.833 651.311,80.783 L651.311,247.858 C651.311,270.807 641.672,279.069 625.608,279.069 L597.15,279.069 L597.15,49.571 L625.608,49.571 Z" id="Fill-3" fill="#FEFEFE" mask="url(#mask-2)"></path>
                    </g>
                </g>
                <polygon id="Fill-7" fill="#007298" points="0 205.446 368.944 205.446 368.944 133.193 0 133.193"></polygon>
                <path d="M64.1434,155.0258 L64.1434,185.3558 L68.0584,185.3558 L68.0584,171.1358 L82.7284,171.1358 L82.7284,185.3558 L86.6884,185.3558 L86.6884,155.0258 L82.7284,155.0258 L82.7284,167.7158 L68.0584,167.7158 L68.0584,155.0258 L64.1434,155.0258 Z M118.1884,167.8958 L106.3984,167.8958 L106.3984,158.3108 L118.8634,158.3108 L118.8634,155.0258 L102.4834,155.0258 L102.4834,185.3558 L119.5384,185.3558 L119.5384,182.0708 L106.3984,182.0708 L106.3984,171.1358 L118.1884,171.1358 L118.1884,167.8958 Z M133.6224,185.3558 L137.5374,185.3558 L137.5374,172.2158 L141.2274,172.2158 C144.7824,172.3508 146.4024,173.9258 147.3024,178.1108 C148.1574,181.8908 148.8324,184.5008 149.3274,185.3558 L153.3774,185.3558 C152.7474,184.1858 152.0274,181.2608 151.0374,177.0308 C150.3174,173.8808 148.9224,171.7208 146.5824,170.9108 L146.5824,170.7758 C149.7774,169.6958 152.2974,167.0408 152.2974,163.0358 C152.2974,160.6958 151.4424,158.6258 149.9124,157.2758 C148.0224,155.5658 145.3224,154.8008 141.1374,154.8008 C138.4374,154.8008 135.6024,155.0258 133.6224,155.4308 L133.6224,185.3558 Z M137.5374,158.1758 C138.1674,157.9958 139.5174,157.8158 141.4074,157.8158 C145.5474,157.8608 148.3824,159.5708 148.3824,163.4858 C148.3824,166.9508 145.7274,169.2458 141.5424,169.2458 L137.5374,169.2458 L137.5374,158.1758 Z M182.5374,167.8958 L170.7474,167.8958 L170.7474,158.3108 L183.2124,158.3108 L183.2124,155.0258 L166.8324,155.0258 L166.8324,185.3558 L183.8874,185.3558 L183.8874,182.0708 L170.7474,182.0708 L170.7474,171.1358 L182.5374,171.1358 L182.5374,167.8958 Z M216.5114,185.3558 L220.4264,185.3558 L220.4264,171.6308 L231.9014,171.6308 L231.9014,168.3908 L220.4264,168.3908 L220.4264,158.3108 L232.8464,158.3108 L232.8464,155.0258 L216.5114,155.0258 L216.5114,185.3558 Z M259.7114,154.5308 C251.6114,154.5308 245.6264,160.8308 245.6264,170.4608 C245.6264,179.6408 251.2514,185.8508 259.2614,185.8508 C267.0014,185.8508 273.3464,180.3158 273.3464,169.8758 C273.3464,160.8758 267.9914,154.5308 259.7114,154.5308 L259.7114,154.5308 Z M259.5314,157.7258 C266.0564,157.7258 269.2064,164.0258 269.2064,170.0558 C269.2064,176.9408 265.6964,182.6558 259.4864,182.6558 C253.3214,182.6558 249.8114,176.8508 249.8114,170.3708 C249.8114,163.7108 253.0514,157.7258 259.5314,157.7258 L259.5314,157.7258 Z M287.4314,185.3558 L291.3464,185.3558 L291.3464,172.2158 L295.0364,172.2158 C298.5914,172.3508 300.2114,173.9258 301.1114,178.1108 C301.9664,181.8908 302.6414,184.5008 303.1364,185.3558 L307.1864,185.3558 C306.5564,184.1858 305.8364,181.2608 304.8464,177.0308 C304.1264,173.8808 302.7314,171.7208 300.3914,170.9108 L300.3914,170.7758 C303.5864,169.6958 306.1064,167.0408 306.1064,163.0358 C306.1064,160.6958 305.2514,158.6258 303.7214,157.2758 C301.8314,155.5658 299.1314,154.8008 294.9464,154.8008 C292.2464,154.8008 289.4114,155.0258 287.4314,155.4308 L287.4314,185.3558 Z M291.3464,158.1758 C291.9764,157.9958 293.3264,157.8158 295.2164,157.8158 C299.3564,157.8608 302.1914,159.5708 302.1914,163.4858 C302.1914,166.9508 299.5364,169.2458 295.3514,169.2458 L291.3464,169.2458 L291.3464,158.1758 Z" id="Fill-8" fill="#FEFEFE"></path>
            </g>
        </g>
    </g>
</svg>