<?xml version="1.0" encoding="UTF-8"?>
<svg width="36px" height="13px" viewBox="0 0 36 13" version="1.1" xmlns="http://www.w3.org/2000/svg" xmlns:xlink="http://www.w3.org/1999/xlink">
    <title>right-arrow</title>
    <g id="right-arrow" stroke="none" stroke-width="1" fill="none" fill-rule="evenodd">
        <g id="Artboard" transform="translate(-237.000000, -31.000000)" fill="#FF4438">
            <path d="M237.637048,38.1478621 L270.809807,38.1478621 L266.095669,42.8626207 C265.846772,43.1108966 265.846772,43.5149655 266.095669,43.7632414 C266.344566,44.0121379 266.747393,44.0121379 266.99629,43.7632414 L272.7296,38.0305517 C272.892841,37.9151034 272.9996,37.7257931 272.9996,37.5104138 C272.9996,37.5073103 272.998979,37.5042069 272.998979,37.5011034 C272.998979,37.4942759 272.997117,37.4874483 272.997117,37.4806207 C272.994014,37.4185517 272.9816,37.3589655 272.962359,37.3024828 C272.950566,37.2664828 272.934428,37.2342069 272.916428,37.2006897 C272.90029,37.1721379 272.88229,37.1448276 272.862428,37.1193793 C272.844428,37.0951724 272.835117,37.0672414 272.813393,37.0455172 L266.954703,31.1868276 C266.829945,31.0626897 266.666703,31 266.504083,31 C266.340841,31 266.1776,31.0626897 266.053462,31.1868276 C265.804566,31.4357241 265.804566,31.8391724 266.053462,32.088069 L270.838979,36.8735862 L237.637048,36.8735862 C237.285117,36.8735862 236.9996,37.1584828 236.9996,37.5104138 C236.9996,37.8629655 237.285117,38.1478621 237.637048,38.1478621" id="right-arrow"></path>
        </g>
    </g>
</svg>
