<?xml version="1.0" encoding="UTF-8"?>
<svg width="704px" height="301px" viewBox="0 0 704 301" version="1.1" xmlns="http://www.w3.org/2000/svg" xmlns:xlink="http://www.w3.org/1999/xlink">
    <title>stanley-color_logo</title>
    <defs>
        <polygon id="path-1" points="0 0 703.372 0 703.372 235.1235 0 235.1235"></polygon>
    </defs>
    <g id="Page-1" stroke="none" stroke-width="1" fill="none" fill-rule="evenodd">
        <g id="Artboard" transform="translate(-1374.000000, -534.000000)">
            <g id="stanley-color_logo" transform="translate(1374.000000, 534.000000)">
                <path d="M309.0381,236.4596 L316.9531,236.2496 L317.6541,262.5786 L312.5291,262.7166 L312.0561,244.9066 C312.0401,244.3956 312.0291,243.6786 312.0131,242.7526 C312.0011,241.8306 311.9891,241.1176 311.9751,240.6156 L307.5771,262.8466 L302.2261,262.9906 L296.6821,241.0256 C296.6961,241.5276 296.7221,242.2406 296.7591,243.1616 C296.7981,244.0836 296.8221,244.8006 296.8361,245.3136 L297.3131,263.1216 L292.1841,263.2566 L291.4831,236.9296 L299.4871,236.7156 L304.8321,257.2896 L309.0381,236.4596 Z" id="Fill-1" fill="#DC2227"></path>
                <path d="M329.6469,252.3014 L336.3899,252.1214 L332.7869,241.8494 L329.6469,252.3014 Z M329.5719,235.9144 L335.7979,235.7464 L345.8159,261.8264 L339.8479,261.9854 L337.9649,256.6184 L328.2719,256.8794 L326.6289,262.3394 L320.8769,262.4924 L329.5719,235.9144 Z" id="Fill-3" fill="#DC2227"></path>
                <path d="M354.084,239.8365 L354.272,246.9085 L360.191,246.7505 C361.366,246.7175 362.246,246.5505 362.825,246.2525 C363.851,245.7215 364.348,244.7215 364.31,243.2425 C364.268,241.6485 363.733,240.5925 362.712,240.0705 C362.142,239.7725 361.285,239.6435 360.154,239.6725 L354.084,239.8365 Z M365.351,235.6375 C366.333,236.0275 367.166,236.6215 367.864,237.4105 C368.439,238.0655 368.897,238.7885 369.247,239.5925 C369.592,240.3925 369.782,241.3095 369.81,242.3475 C369.843,243.5975 369.561,244.8325 368.961,246.0615 C368.36,247.2855 367.343,248.1685 365.902,248.7055 C367.131,249.1615 368.009,249.8345 368.539,250.7195 C369.07,251.6065 369.358,252.9695 369.407,254.8165 L369.456,256.5835 C369.484,257.7875 369.557,258.6025 369.666,259.0275 C369.829,259.7015 370.18,260.1935 370.72,260.5005 L370.738,261.1615 L364.667,261.3245 C364.482,260.7465 364.351,260.2775 364.27,259.9235 C364.108,259.1885 364.011,258.4345 363.977,257.6605 L363.878,255.2135 C363.81,253.5375 363.491,252.4245 362.916,251.8795 C362.344,251.3355 361.292,251.0845 359.758,251.1235 L354.389,251.2665 L354.661,261.5905 L349.287,261.7335 L348.585,235.4065 L361.176,235.0685 C362.975,235.0585 364.369,235.2485 365.351,235.6375 L365.351,235.6375 Z" id="Fill-5" fill="#DC2227"></path>
                <polygon id="Fill-7" fill="#DC2227" points="374.9677 234.7018 380.3757 234.5568 380.6647 245.4048 390.5487 234.2858 397.6577 234.0968 387.1447 245.2128 398.9157 260.4098 391.8407 260.5978 383.4227 249.3228 380.8437 252.0808 381.0787 260.8878 375.6657 261.0318"></polygon>
                <polygon id="Fill-9" fill="#DC2227" points="420.8867 238.1441 406.9547 238.5121 407.1037 244.1041 419.8927 243.7621 420.0157 248.3351 407.2267 248.6781 407.4067 255.4461 421.9807 255.0591 422.1057 259.7911 402.1547 260.3241 401.4547 233.9971 420.7607 233.4801"></polygon>
                <polygon id="Fill-11" fill="#DC2227" points="444.8232 232.8385 444.9462 237.5015 437.0682 237.7115 437.6472 259.3765 432.1112 259.5255 431.5342 237.8585 423.6182 238.0685 423.4952 233.4045"></polygon>
                <path d="M461.6591,237.8414 C460.9441,237.2764 459.9631,237.0104 458.7081,237.0454 L453.7491,237.1764 L453.9561,244.9264 L458.9151,244.7954 C460.1701,244.7634 461.1361,244.4184 461.8171,243.7724 C462.4951,243.1214 462.8181,242.1104 462.7781,240.7404 C462.7441,239.3734 462.3691,238.4064 461.6591,237.8414 M466.1111,247.2134 C464.6031,248.5424 462.4201,249.2404 459.5591,249.3204 L454.0771,249.4644 L454.3301,258.9324 L448.8631,259.0764 L448.1601,232.7484 L459.4651,232.4464 C462.0731,232.3774 464.1661,233.0004 465.7511,234.3184 C467.3361,235.6354 468.1691,237.7154 468.2451,240.5594 C468.3271,243.6684 467.6151,245.8874 466.1111,247.2134" id="Fill-13" fill="#DC2227"></path>
                <polygon id="Fill-15" fill="#DC2227" points="472.4345 232.1021 477.9345 231.9541 478.5115 253.5511 491.6595 253.2001 491.7825 257.9311 473.1375 258.4291"></polygon>
                <path d="M502.3838,247.6959 L509.1258,247.5139 L505.5208,237.2409 L502.3838,247.6959 Z M502.3068,231.3059 L508.5318,231.1389 L518.5488,257.2189 L512.5838,257.3779 L510.7038,252.0099 L501.0078,252.2709 L499.3668,257.7309 L493.6118,257.8849 L502.3068,231.3059 Z" id="Fill-17" fill="#DC2227"></path>
                <path d="M523.7832,233.485 C525.8462,231.26 528.5142,230.106 531.7892,230.017 C536.1742,229.901 539.4142,231.269 541.5202,234.12 C542.6812,235.719 543.3262,237.341 543.4542,238.985 L537.9522,239.131 C537.5682,237.88 537.0932,236.936 536.5282,236.307 C535.5172,235.188 534.0502,234.658 532.1252,234.71 C530.1652,234.762 528.6402,235.61 527.5542,237.255 C526.4652,238.898 525.9602,241.198 526.0362,244.149 C526.1182,247.102 526.7692,249.298 528.0052,250.735 C529.2412,252.176 530.7772,252.872 532.6182,252.821 C534.5032,252.769 535.9252,252.104 536.8842,250.814 C537.4102,250.121 537.8382,249.092 538.1622,247.721 L543.6292,247.575 C543.2332,250.46 542.0932,252.825 540.2032,254.672 C538.3102,256.526 535.8522,257.489 532.8272,257.571 C529.0782,257.671 526.1012,256.535 523.8952,254.163 C521.6862,251.778 520.5202,248.46 520.4092,244.21 C520.2852,239.615 521.4122,236.038 523.7832,233.485" id="Fill-19" fill="#DC2227"></path>
                <polygon id="Fill-21" fill="#DC2227" points="567.207 234.2389 553.273 234.6119 553.425 240.2019 566.214 239.8599 566.337 244.4319 553.546 244.7719 553.73 251.5429 568.301 251.1539 568.427 255.8869 548.477 256.4189 547.773 230.0919 567.084 229.5769"></polygon>
                <g id="Group-25">
                    <mask id="mask-2" fill="white">
                        <use xlink:href="#path-1"></use>
                    </mask>
                    <g id="Clip-24"></g>
                    <path d="M287.7055,192.5465 C277.3485,176.0965 184.1215,10.9675 184.1215,10.9675 L225.5535,12.1855 C225.5535,12.1855 238.9585,11.5775 247.4885,21.9355 C256.0205,32.2935 408.3535,193.7665 408.3535,193.7665 C408.3535,193.7665 415.1985,201.6135 425.6455,207.8275 L289.3815,211.1055 C291.7345,206.7765 292.7255,200.5205 287.7055,192.5465 L287.7055,192.5465 Z M702.9615,201.1575 L463.3675,206.9205 C463.3675,206.9205 441.2595,209.6085 420.5435,189.5005 C399.8285,169.3945 251.1525,8.5305 251.1525,8.5305 C251.1525,8.5305 242.0075,-0.0005 220.0705,0.6085 C198.1345,1.2175 165.2255,-0.0005 165.2255,-0.0005 C165.2255,-0.0005 259.6725,166.3455 271.2505,188.8905 C271.2505,188.8905 284.7565,205.6725 277.5515,211.3895 L-0.0005,218.0665 L0.4095,235.1235 L703.3725,218.2155 L702.9615,201.1575 Z" id="Fill-23" fill="#DC2227" mask="url(#mask-2)"></path>
                </g>
                <path d="M182.6626,143.9654 C176.2486,139.2604 170.0906,134.2124 164.1326,128.9414 C159.4986,124.8414 153.9506,120.8604 150.8636,115.3764 C147.6036,109.5774 148.3456,102.0144 149.5606,95.7294 C150.9296,88.6444 153.6126,81.8394 156.9616,75.4634 C158.5306,72.4784 160.2576,69.5744 162.1236,66.7644 C164.0116,63.9194 165.8826,61.1884 168.1256,58.6464 C169.6946,56.8684 170.7166,56.2104 172.6456,54.2784 C174.4396,52.4804 176.1876,51.4104 178.2386,49.9064 C183.1816,46.2804 189.9656,42.1994 196.3936,42.7704 C202.1006,43.2794 204.9376,47.4104 204.9076,52.8564 C204.8466,63.8394 199.9596,74.7014 196.2616,84.8394 C196.2616,84.8394 205.5546,85.1334 209.8106,84.8654 C211.5796,84.7524 213.3486,84.5954 215.1196,84.5414 C216.5936,84.4944 217.8826,84.7724 218.4406,83.0574 C219.3786,80.1804 220.0006,76.8534 220.5566,73.8794 C221.3286,69.7634 222.2486,65.6774 222.9326,61.5454 C224.1426,54.2524 224.6926,46.3734 221.9716,39.3344 C217.8076,28.5524 206.8156,26.2004 195.7796,25.6114 C192.2436,25.4234 188.9346,25.5124 185.4386,26.3514 C181.5506,27.2834 177.7986,28.6434 174.2286,30.4494 C167.6696,33.7674 161.5026,38.1314 156.1146,43.1284 C145.7716,52.7234 138.5896,64.9004 132.6686,77.5834 C126.7156,90.3384 121.8536,105.0944 125.3276,119.2544 C127.0776,126.3894 132.5406,130.9704 138.0886,135.3424 C143.2796,139.4304 148.5616,143.4254 153.8686,147.3674 C162.8216,154.0244 173.6376,161.8644 175.5296,173.6924 C177.7956,187.8544 168.0186,200.8974 160.4736,211.8704 C156.0186,218.3544 150.9826,224.4314 145.8646,230.4014 C142.2336,234.6434 138.2176,238.1494 133.4276,241.0114 C129.2666,243.4964 124.8746,245.6984 120.2596,247.2064 C116.0886,248.5664 110.9496,249.6994 106.7926,247.6844 C101.7006,245.2094 101.2426,239.5454 103.2296,234.8164 C105.6246,229.1234 109.6016,223.8054 112.8766,218.5894 C114.7756,215.5684 116.6706,212.5004 117.9906,209.1724 C118.6906,207.4044 119.4886,205.0274 117.8366,203.5224 C115.2276,201.1434 110.1206,202.1334 106.9816,202.4884 C102.0586,203.0474 96.2176,203.2624 92.9126,207.5434 C90.9976,210.0254 90.0366,213.3954 88.6536,216.1974 C86.9986,219.5434 85.2436,222.8394 83.5946,226.1914 C78.1716,237.2014 72.6556,251.5144 82.9476,261.4784 C92.7176,270.9344 108.5266,271.0944 121.0106,268.5064 C135.8386,265.4304 149.4446,257.9364 160.9836,248.2724 C172.7386,238.4284 181.2686,226.3284 188.7646,213.0654 L188.4876,213.0654 C195.6656,201.1254 202.6106,187.4444 201.2586,173.0804 C200.1056,160.8714 192.2676,151.0074 182.6626,143.9654" id="Fill-26" fill="#0A7DAD"></path>
                <path d="M537.0937,153.7589 C534.6687,154.2199 536.6587,146.1889 536.8717,145.2729 C538.0247,140.3399 539.8147,136.0439 542.3297,131.6149 C543.2237,130.0459 544.1317,128.4829 544.9667,126.8799 C545.5467,125.7679 561.1417,103.5859 570.9727,108.7959 C578.4967,112.7809 567.1447,126.4499 562.9017,131.7599 C559.4967,136.0219 555.7607,139.9809 551.5507,143.4599 C549.0417,145.5309 540.2727,153.8569 537.0937,153.7589 M528.8617,54.2579 C531.6087,61.1209 526.9697,68.4759 524.0167,74.4419 C520.4347,81.6759 516.4637,88.4949 511.7067,95.0289 C501.7827,108.6619 491.8747,122.5259 479.7447,134.3159 C480.9417,120.5119 514.5507,65.7389 528.8617,54.2579 M340.2157,133.8799 C338.7407,148.0719 332.8957,161.4059 324.4287,172.8039 C320.2747,178.3959 315.4707,183.7309 309.4177,187.3099 C304.9027,189.9769 298.5017,192.2859 294.3157,187.7699 C290.2677,183.4049 291.4297,176.1269 292.3627,170.8229 C293.5867,163.8229 296.1167,157.0689 299.5077,150.8359 C302.8407,144.7159 307.0247,138.9359 312.1057,134.1479 C316.3877,130.1099 322.7457,124.8269 328.8297,124.1619 C334.5157,123.5399 340.8627,127.6459 340.2157,133.8799 M672.9277,81.7839 C669.6857,79.1499 664.6607,80.8389 660.9127,81.1409 C657.2877,81.4329 653.3147,81.6139 650.1937,83.7139 C646.5637,86.1569 644.7897,91.2199 643.2187,95.1079 C641.3497,99.7439 639.7437,104.4799 637.8567,109.1089 C633.8217,118.9959 629.5227,128.6849 623.3827,137.4789 C620.6977,141.3259 617.7107,144.9739 614.6067,148.4889 C611.7947,151.6669 608.3227,155.0859 603.8957,155.6069 C602.9417,153.0399 604.8477,150.1339 605.9887,147.9529 C607.7637,144.5539 608.9507,140.8179 610.4147,137.2769 C613.6077,129.5529 616.8987,121.8709 620.0967,114.1499 C623.0177,107.1009 626.9317,100.3379 629.1637,93.0269 C630.4737,88.7329 630.0627,85.4369 625.1047,84.6489 C621.2667,84.0409 617.1947,84.6999 613.4307,85.5019 C608.1947,86.6199 605.8067,90.2799 603.9997,95.0609 C601.4937,101.6949 598.6707,108.1919 595.9877,114.7559 C593.2877,121.3649 590.8187,128.0759 587.8837,134.5869 C582.2017,147.1769 574.3567,159.0139 561.1517,164.5159 C556.0867,166.6249 549.5917,169.0519 544.0797,167.5829 C543.3447,167.3849 540.2937,166.5479 541.5317,165.2889 C543.8827,162.8909 547.5007,161.1459 550.2937,159.2959 C556.1127,155.4479 561.9517,151.5669 567.0887,146.8199 C572.2017,142.0949 576.4507,136.4739 579.8987,130.4359 C585.9637,119.8159 591.1297,104.5729 580.5987,94.9679 C570.2437,85.5259 555.6477,89.3679 544.7597,95.7079 C532.3507,102.9319 522.2397,113.8239 516.1257,126.8189 C513.0007,133.4609 510.5497,140.6529 509.9677,148.0019 C509.6697,151.7429 509.7777,155.5049 510.0027,159.2439 C510.1897,162.2859 511.2547,164.6039 508.2697,166.3759 C502.8117,169.6129 495.5227,172.8199 489.0177,172.3919 C483.8207,172.0519 482.1257,167.0039 481.6157,162.5099 C480.9017,156.1939 484.7357,151.9459 488.4797,147.3899 C493.2157,141.6259 497.9607,135.8699 502.6147,130.0379 C512.0467,118.2219 521.1447,106.0809 528.9087,93.0899 C536.7327,79.9919 543.6217,65.8179 546.2237,50.6689 C547.0357,45.9219 548.8147,40.4349 546.9317,35.7289 C544.5337,29.7209 537.1847,30.9789 532.3807,32.8539 C526.0087,35.3419 520.7927,39.8439 515.9307,44.5419 C510.7267,49.5709 505.7527,54.8039 501.1827,60.4219 C492.0297,71.6669 484.3647,84.0629 477.8087,96.9799 C470.9387,110.5169 464.7497,124.6719 461.3127,139.5039 C460.4577,143.1869 459.7827,146.9089 459.3157,150.6609 C458.8507,154.3919 459.4967,158.9399 457.7607,162.3769 C456.4837,164.9119 454.0977,167.1179 452.2237,169.1889 C450.1987,171.4279 448.2437,173.3549 445.9037,175.2819 C443.9417,176.8949 441.5187,178.3539 438.8787,178.1549 C436.9337,175.3589 439.8057,170.2089 440.9737,167.6209 C443.1267,162.8469 451.0627,140.6659 453.3217,134.5249 C455.4907,128.6289 458.3407,122.5519 459.0877,116.2649 C459.6737,111.3379 458.4757,106.1719 454.1577,103.2759 C450.5907,100.8819 445.9337,100.4979 441.8217,101.4279 C430.9217,103.8929 423.2377,112.3179 414.0717,118.0419 C415.1057,114.8959 418.1307,110.3299 416.5997,106.9459 C415.6827,104.9189 413.1547,104.9869 411.2797,104.9529 C407.8487,104.8899 404.4047,104.9369 400.9917,105.3249 C398.3437,105.6259 394.9617,105.9719 392.7087,107.5399 C390.5707,109.0279 389.5717,111.7819 388.8237,114.1619 C386.7577,120.7359 377.6417,148.3079 375.5637,155.6629 C373.6247,162.5209 370.4827,168.5769 366.1397,174.2439 C362.8047,178.5919 358.4617,182.5479 353.5297,185.0199 C351.6677,185.9539 349.3087,186.8859 347.2117,186.2209 C343.8157,185.1409 344.6937,181.8269 345.5917,179.2949 C350.2997,166.0239 365.3207,125.0179 368.1717,117.7649 C368.8697,115.9899 370.1107,113.9059 370.2847,111.9679 C370.4787,109.8109 367.7227,109.4209 366.1467,109.2259 C358.5667,109.7959 344.4077,109.3879 342.9507,119.6309 C334.8017,110.8019 320.1677,112.9519 309.9477,116.2419 C297.4127,120.2749 287.5217,129.4459 279.5667,139.6449 C273.7277,147.1319 268.4257,155.4949 264.6717,164.2229 C263.7197,166.4339 262.8777,168.7049 262.3277,171.0509 C261.6947,173.7649 261.8417,176.5599 260.9567,179.2249 C259.2117,184.4799 255.0407,189.9169 251.3427,193.9749 C247.4327,198.2669 241.3587,203.1589 235.0977,201.6409 C230.4297,200.5129 231.5417,194.9929 232.4477,191.5459 C236.5357,175.9479 252.2837,131.6769 254.4917,124.6719 C255.8507,120.3599 257.6967,112.4169 262.7237,111.9129 C270.8487,111.1019 272.8547,110.7359 281.7637,110.1349 C287.3257,109.7609 304.0337,108.4769 311.1657,108.0029 C316.9447,107.6189 319.0247,108.9829 318.5707,100.9649 C318.5707,100.9679 318.5757,100.9699 318.5777,100.9719 L318.5777,95.6629 C300.5147,96.0779 282.2737,98.9489 264.2927,100.7309 C268.1767,85.1979 275.4797,70.8249 279.5807,55.4489 C272.9777,55.9899 266.3757,56.5309 259.7707,57.0729 C258.5367,57.1739 255.3947,56.6979 254.8057,58.1569 C253.7027,60.8969 252.7667,63.7169 251.7967,66.5059 C247.5657,78.6839 243.8017,91.0439 238.7057,102.9019 C231.5737,103.6789 224.4477,104.4559 217.3047,105.1139 C210.0207,105.7839 202.7247,106.6809 195.4137,106.9079 C193.5617,106.9649 190.0107,107.4459 189.8077,107.6479 C188.8047,108.6509 188.0617,111.5079 187.6147,112.8249 C186.8637,115.0389 186.1117,117.2509 185.3597,119.4649 C192.3607,119.2999 199.3407,118.7079 206.3057,118.0369 C212.7367,117.4179 230.0317,115.9239 231.9237,116.7069 C234.5817,117.8069 232.8617,120.9889 232.1587,122.7979 C229.5077,129.6039 215.4737,170.7019 210.6797,184.2609 C208.4897,190.4569 205.8547,196.9009 207.2647,203.5849 C207.6977,205.6329 208.5267,207.5029 209.4787,209.3539 C209.8737,210.1279 211.0497,213.0649 212.1667,213.0649 C221.3437,221.3219 235.9497,219.6279 245.5087,213.4169 C245.5777,213.4189 246.5557,212.3969 246.6227,212.3989 C248.4037,211.0209 250.1977,209.6619 251.9787,208.2839 C255.4047,205.6449 258.7837,202.9359 261.9507,199.9889 C264.6537,197.4729 268.5697,201.6609 270.8397,203.1759 C273.7627,205.1279 276.7897,206.9619 280.2017,207.9209 C288.0217,210.1229 297.0727,208.3399 304.5717,205.7289 C308.4657,204.3739 312.1897,202.5849 315.5507,200.1839 C319.0527,197.6899 321.5757,194.1199 325.0757,191.6509 C333.5147,209.6109 352.8017,200.9809 362.7137,189.2209 C366.3097,184.9309 362.4507,193.5749 361.5947,195.5899 C360.3677,198.4889 361.2757,198.6119 363.4377,198.3969 C370.0847,197.7409 376.7347,197.0849 383.3807,196.4279 C388.6287,181.4379 392.5227,165.9219 401.3137,152.4879 C409.1327,140.5309 419.6487,130.3599 431.7127,122.7349 C433.1327,126.9439 429.3417,133.2529 427.4487,138.2939 C425.2517,144.1479 416.6527,167.2899 414.5187,172.9919 C412.8457,177.4649 412.6077,182.4129 415.2357,186.5889 C419.6967,193.6779 429.2207,193.6819 436.2777,191.2059 C446.0727,187.7679 453.3647,180.1999 461.6007,174.2349 C463.7467,178.1639 465.7947,182.4189 469.4767,185.1569 C474.0647,188.5669 479.8527,188.3889 485.1727,187.1739 C490.8277,185.8869 496.4227,184.0509 501.8287,181.9709 C504.4637,180.9609 507.0637,179.8629 509.6257,178.6869 C511.9947,177.5999 514.7417,176.1989 517.3927,176.0359 C518.9537,175.9429 520.6227,178.0469 521.8377,178.8149 C524.0977,180.2389 526.5717,181.3099 529.1407,182.0409 C534.5477,183.5729 540.2857,183.8419 545.8517,183.2119 C557.6557,181.8739 567.7977,176.4229 578.0177,170.7669 C580.6457,173.5299 583.6987,175.8969 587.6487,176.1249 C591.3857,176.3369 595.0637,175.6619 598.4657,174.2679 C601.9587,172.8359 605.9087,170.9769 609.0387,168.8259 C610.6527,167.7189 613.6897,164.4179 615.8857,165.7399 C605.6987,190.6759 594.7237,215.1959 583.7337,239.7879 C578.1947,252.1779 572.4817,264.4949 567.4697,277.1079 C566.3117,280.0279 561.6107,292.0959 560.4137,295.0009 C559.7037,296.7229 558.5937,298.5629 557.9747,300.3989 L584.1707,300.3989 C584.5227,299.5009 584.8137,298.6509 585.0607,297.9619 C587.2967,291.6549 593.5437,276.3779 596.1177,270.2019 C599.3257,262.5029 602.5337,254.8079 605.8117,247.1409 C607.3277,243.5859 608.9547,240.0669 610.3637,236.4689 C611.7367,232.9589 612.9187,229.3489 614.7157,226.0229 C618.5577,218.9159 621.2787,210.9979 624.2627,203.4949 C627.2967,195.8599 630.3017,188.2169 633.4737,180.6399 C640.0137,165.0069 646.6847,149.4309 653.3567,133.8539 C657.2247,124.8199 661.0907,115.7839 664.9307,106.7379 C666.9177,102.0589 668.8967,97.3759 670.8637,92.6899 C672.1557,89.6179 675.3087,85.0219 672.9277,81.7839" id="Fill-28" fill="#0A7DAD"></path>
                <polygon id="Fill-30" fill="#0A7DAD" points="627.5615 223.4947 627.5615 224.6957 624.1645 224.6957 624.1645 233.5747 622.7855 233.5747 622.7855 224.6957 619.3885 224.6957 619.3885 223.4947"></polygon>
                <path d="M628.7822,223.4947 L630.7382,223.4947 L633.6362,232.0177 L636.5142,223.4947 L638.4582,223.4947 L638.4582,233.5747 L637.1542,233.5747 L637.1542,227.6257 C637.1542,227.4207 637.1582,227.0787 637.1682,226.6037 C637.1772,226.1277 637.1812,225.6177 637.1812,225.0727 L634.3042,233.5747 L632.9502,233.5747 L630.0452,225.0727 L630.0452,225.3817 C630.0452,225.6297 630.0522,226.0057 630.0652,226.5107 C630.0792,227.0157 630.0862,227.3887 630.0862,227.6257 L630.0862,233.5747 L628.7822,233.5747 L628.7822,223.4947 Z" id="Fill-32" fill="#0A7DAD"></path>
            </g>
        </g>
    </g>
</svg>